<svg width="118" height="93" viewBox="0 0 118 93" fill="none" xmlns="http://www.w3.org/2000/svg">
<path fill-rule="evenodd" clip-rule="evenodd" d="M15.3637 27.6959C12.1241 20.2626 12.7943 9.55031 20.0446 4.11098C33.1175 -5.69043 55.518 8.00821 47.6451 24.8786L85.0852 42.5482C89.047 39.7244 90.8622 36.2962 94.5613 34.7668C116.304 25.7805 128.311 62.1667 104.427 67.1521C104.56 72.1447 107.109 74.4154 106.245 78.3259C100.978 102.163 65.7714 92.1905 73.7276 70.7175L35.756 52.7971C31.806 54.8063 31.6389 57.7396 28.6082 59.7405C17.0192 67.4196 -0.837139 56.5786 1.09821 42.8878C2.15833 35.4039 8.98235 29.3623 15.3637 27.6959Z" fill="#594DB3"/>
</svg>
