<svg width="118" height="80" viewBox="0 0 118 80" fill="none" xmlns="http://www.w3.org/2000/svg">
<g clip-path="url(#clip0_166_1042)">
<path d="M106.926 69.9403L107.171 50.2935C107.215 46.8185 104.767 43.8383 101.345 43.209L19.1264 28.0886C15.7067 27.4597 12.3566 29.3736 11.1604 32.6367L4.39911 51.0851C3.05026 54.7672 4.94974 58.8609 8.6325 60.2121C9.00856 60.3502 9.39829 60.4564 9.79308 60.529L98.5274 76.8476C102.384 77.5568 106.1 74.9952 106.809 71.1387C106.882 70.7429 106.92 70.3428 106.926 69.9403ZM82.1469 62.2828C81.6376 63.7883 80.5734 65.0094 79.1472 65.7135C76.2059 67.1699 72.6233 65.9572 71.1682 63.015C70.2858 61.228 68.7712 59.8607 66.9049 59.1605L45.3988 55.2266C43.6459 55.2401 41.7429 55.9788 40.2835 57.3352C39.6162 57.952 38.8093 58.4153 37.9459 58.6713C37.0299 58.9477 36.0786 58.9985 35.161 58.8298C34.5586 58.719 33.9704 58.5129 33.4148 58.2139C32.0139 57.4625 30.9898 56.2099 30.5303 54.6875C29.7147 51.9685 30.9395 49.1122 33.3172 47.7757C33.0171 47.418 32.7593 47.0236 32.5524 46.6063C31.0968 43.6607 32.3076 40.0823 35.2481 38.6246C38.1943 37.1658 41.7736 38.3778 43.2281 41.3233C44.1097 43.109 45.6251 44.4776 47.4914 45.1778L68.9989 49.1108C70.7505 49.0982 72.6526 48.3582 74.1118 47.0029C74.7827 46.3845 75.5903 45.9236 76.4494 45.6668C77.9669 45.2097 79.5797 45.3717 80.9806 46.1231C82.3846 46.8762 83.4061 48.1305 83.8666 49.6543C84.3229 51.1761 84.1602 52.7865 83.4088 54.1875C82.8654 55.2008 82.0603 56.0169 81.0813 56.563C81.38 56.9227 81.6371 57.3203 81.8447 57.7399C82.5487 59.1605 82.6562 60.7772 82.1469 62.2828Z" fill="#19D1AA"/>
<path d="M29.353 20.2098C34.6318 17.1637 41.4112 18.9832 44.4599 24.2658C44.8419 24.9221 45.6802 25.153 46.338 24.7691C46.9948 24.3906 47.2209 23.548 46.8413 22.891C46.1365 21.6682 45.2297 20.6485 44.2456 19.7347C45.3546 16.7825 47.6648 14.4038 50.6538 13.3353C53.3643 12.3659 56.2878 12.4998 58.8988 13.7407C61.5029 14.9702 63.4707 17.1448 64.4412 19.8555C64.467 19.927 64.5178 19.9775 64.5537 20.0419C64.601 20.1296 64.641 20.2204 64.7081 20.2972C64.7889 20.3899 64.8905 20.4542 64.9917 20.5206C65.0362 20.551 65.066 20.5943 65.1149 20.6189C65.119 20.6208 65.1246 20.6207 65.1287 20.6225C65.2867 20.7005 65.4582 20.7476 65.6369 20.7616C65.6403 20.7611 65.6423 20.7626 65.6455 20.7632C65.7245 20.7688 65.8039 20.7423 65.8845 20.7337C65.9855 20.7223 66.0879 20.7222 66.1841 20.6887C66.1888 20.6874 66.1942 20.6884 66.1989 20.687C66.2537 20.6671 66.2911 20.6272 66.3413 20.602C66.4479 20.5482 66.5538 20.4987 66.6442 20.4186C66.7252 20.3467 66.7787 20.2554 66.8402 20.1688C66.878 20.1146 66.9308 20.0754 66.962 20.0144C68.6928 16.5961 72.1489 14.5048 75.9803 14.5522C81.0721 14.6212 85.1683 18.5017 85.7151 23.4198C83.7311 23.6922 81.8038 24.3753 80.0593 25.468C79.4168 25.8714 79.2219 26.7197 79.6253 27.3621C80.0268 28.0031 80.8778 28.1952 81.5208 27.7952C84.4189 25.975 87.9409 25.5151 91.2144 26.5942C94.148 27.5441 96.533 29.5785 97.9362 32.3254C99.1557 34.7105 99.4458 37.3784 98.8903 39.963L24.4555 26.2741C25.3107 23.7402 27.0069 21.5621 29.353 20.2098Z" fill="#19D1AA"/>
</g>
<defs>
<clipPath id="clip0_166_1042">
<rect width="108.514" height="60.891" fill="white" transform="translate(11.2754 0.373047) rotate(10.4205)"/>
</clipPath>
</defs>
</svg>
