<svg width="79" height="79" viewBox="0 0 79 79" fill="none" xmlns="http://www.w3.org/2000/svg">
<path d="M56.1718 4.30962C56.0521 4.72856 55.8726 5.62629 55.7529 6.28462C55.6332 7.06265 54.9749 7.60129 53.7779 7.78084C52.1021 8.08008 51.9824 8.31947 51.8029 10.893C51.6233 13.646 51.6832 13.7058 53.5983 14.2445C55.1544 14.6036 55.6332 15.0824 55.7529 16.3392C55.9324 17.8354 56.1718 17.9551 58.9249 17.9551C61.7377 17.9551 61.9173 17.8354 62.2764 16.1596C62.5158 14.9627 62.9347 14.3642 63.7127 14.3642C65.2688 14.3642 66.6453 12.7483 66.6453 10.8331C66.6453 8.85811 65.6877 7.78084 63.8324 7.78084C62.815 7.78084 62.4559 7.42174 62.4559 6.40432C62.4559 5.62629 62.1567 4.72856 61.7377 4.30962C60.7802 3.35205 56.5309 3.35205 56.1718 4.30962ZM60.3014 4.54902C60.8999 4.78841 61.2589 5.62629 61.2589 6.64371C61.2589 8.02023 61.4983 8.37932 62.6355 8.37932C64.7302 8.37932 65.568 9.27705 65.3286 11.1324C65.2089 12.5089 64.79 12.9278 63.3536 13.1672C61.9173 13.4066 61.4983 13.8255 61.2589 15.2619C60.9597 16.8778 60.7203 17.0574 58.865 17.0574C56.9499 17.0574 56.7703 16.8778 56.5908 15.0824C56.4112 13.4066 56.1718 13.1672 54.6158 13.1672C52.8802 13.1672 52.8203 13.0475 52.9999 10.893C53.1794 8.97781 53.4188 8.67856 54.8552 8.49902C56.112 8.31947 56.4711 7.96038 56.4711 6.88311C56.4711 4.90811 58.3264 3.77099 60.3014 4.54902Z" fill="#594DB3"/>
<path d="M31.0339 7.72043C27.9816 9.09694 24.3907 13.0469 23.6127 15.9795C23.2536 17.2363 22.9544 21.6651 22.9544 25.7947C22.9544 33.0363 22.8945 33.3356 21.4582 34.7121C19.0642 36.9265 18.4657 39.6795 19.6627 42.8515C20.6203 45.3053 20.5604 45.5447 19.543 46.9212C18.765 47.9985 17.8672 48.4174 16.4907 48.4772C13.3188 48.4772 12.1816 49.4348 12.1816 51.8288C12.1816 55.7788 14.8748 58.6515 18.5854 58.6515C19.9021 58.6515 20.0218 58.831 19.6627 60.2674C19.4832 61.1651 18.1066 62.9606 16.6703 64.2772C15.1142 65.7735 13.9771 67.5091 13.6779 68.706C12.7801 72.8954 15.9521 76.0674 20.0816 75.05C22.5354 74.5113 52.7589 74.5113 56.5294 75.1098C58.9233 75.4689 59.4619 75.3492 60.8385 74.0924C63.1127 72.0576 63.3521 70.2022 61.6763 66.9704C60.4195 64.3969 60.3597 64.0379 61.1377 61.8833C62.2748 58.7712 62.215 51.7689 61.018 48.5371C60.4794 47.1007 60.0604 45.1257 60.0604 44.1682C60.0604 43.2106 59.4021 41.2954 58.6241 39.9189C57.846 38.5424 57.0082 36.5075 56.7688 35.4303C56.29 33.156 56.1104 33.0962 54.6741 34.8318L53.6566 36.1485L51.8013 34.6522L49.946 33.2159L49.8862 25.7348C49.8862 16.8174 49.4074 14.7825 46.4748 11.3712C42.5248 6.8227 36.3006 5.32649 31.0339 7.72043ZM38.3354 17.9545C39.4127 19.9894 40.9089 21.7848 42.2854 22.6825C44.44 24.1189 44.4998 24.2386 44.4998 27.7697C44.4998 35.131 38.7544 39.6197 33.1286 36.6871C29.8369 35.0113 28.3407 32.1985 28.3407 27.8894C28.3407 24.4182 28.4604 24.1189 30.1362 23.1613C31.9915 22.0242 35.0438 18.0144 35.8218 15.6803C36.3006 14.0045 36.2407 13.8848 38.3354 17.9545ZM27.1438 26.7522C27.1438 28.7871 27.0839 28.9068 26.1862 28.0091C25.5877 27.4106 25.3483 26.6325 25.6475 25.7947C26.246 23.7598 27.1438 24.3583 27.1438 26.7522ZM47.4922 26.6325C47.4922 27.0515 47.0733 27.7098 46.5945 28.1288C45.8165 28.7871 45.6968 28.5477 45.6968 26.6325C45.6968 24.7174 45.8165 24.478 46.5945 25.1363C47.0733 25.5553 47.4922 26.2136 47.4922 26.6325ZM58.8635 44.4075C58.8635 45.5447 58.265 46.8015 57.1278 47.9386C53.4771 51.5894 48.0907 49.4348 47.3127 43.9886C47.1332 42.6719 46.7741 40.9363 46.5347 40.1583C46.1756 38.8416 46.2354 38.7818 47.5521 39.081C49.2877 39.5 53.118 38.303 54.4945 36.9265C55.3922 36.0288 55.6316 36.2083 57.1877 39.3204C58.0854 41.1757 58.8635 43.45 58.8635 44.4075ZM39.7119 40.278C39.7119 41.6545 39.2332 42.7318 38.2756 43.6295L36.7794 45.006L34.9839 43.6894C33.6672 42.7916 33.1286 41.8939 33.1286 40.7568C33.1286 38.5424 33.4877 38.303 36.8392 38.303C39.7119 38.303 39.7119 38.303 39.7119 40.278ZM34.5051 44.8863C36.3604 46.3825 36.4203 46.3825 38.5748 44.8265C40.9688 43.1507 42.7044 43.7492 42.7044 46.3825C42.7044 47.8189 42.2854 48.5969 41.2082 49.3151C38.515 51.1106 39.7119 55.6591 42.8839 55.6591C44.1407 55.6591 44.2006 55.9583 44.1407 59.6689C44.1407 63.978 42.5847 68.4666 41.3279 68.0477C40.8491 67.928 40.49 65.953 40.3104 62.7212C39.9513 57.0356 39.2332 55.6591 36.6597 55.6591C35.2233 55.6591 34.9241 55.8985 34.9241 57.0954C34.9241 57.8735 35.343 58.6515 35.8218 58.8909C36.54 59.1303 36.7195 60.3272 36.7195 64.1576C36.7195 68.3469 36.8991 69.2447 38.0362 70.4416C38.8142 71.2197 40.0112 71.8182 41.0286 71.8182C41.9263 71.8182 42.7044 72.0576 42.7044 72.4166C42.7044 72.7757 40.7294 73.0151 37.9763 73.0151H33.1885L33.0089 60.5068C32.8294 48.1182 32.8294 47.9386 31.3332 46.3825C30.0763 45.0659 30.0165 44.7068 30.7347 44.2879C32.0513 43.45 32.8294 43.5697 34.5051 44.8863ZM29.7771 46.3825C31.8718 48.3575 31.7521 48.956 29.1188 49.1954L26.8445 49.375L26.665 52.4272C26.4854 55.1803 26.665 55.6591 28.1013 56.7962C28.9991 57.5144 30.196 58.053 30.7945 58.053C31.8718 58.053 31.9316 58.6515 31.9316 65.5341V73.0151H28.0415C24.1513 73.0151 24.1513 73.0151 24.1513 71.3394C24.1513 69.4841 22.7748 67.8682 20.8597 67.5091C19.9021 67.3295 19.7225 66.9106 19.8422 65.2348C19.9619 64.0977 20.321 62.1227 20.6203 60.8659C21.1589 58.831 21.3983 58.6515 23.2536 58.6515C24.3907 58.6515 25.468 58.3522 25.6475 58.053C25.8869 57.6939 24.271 57.4545 21.2786 57.4545C17.3885 57.4545 16.2513 57.2151 14.9347 56.1977C13.2589 54.881 12.84 52.6666 14.2763 52.6666C14.7551 52.6666 15.593 52.0083 16.1316 51.1704C16.6703 50.3326 17.568 49.6742 18.1665 49.6742C18.765 49.6742 19.4233 49.1356 19.6627 48.4772C20.7998 44.8863 26.7847 43.6295 29.7771 46.3825ZM46.5347 47.2803C47.3725 48.2977 47.9112 49.4947 47.7316 49.9735C47.2528 51.2303 46.8339 51.1106 44.9188 49.375C43.3627 47.8788 42.8839 46.6818 43.7218 45.9038C44.44 45.1856 44.9786 45.425 46.5347 47.2803ZM60.6589 50.7515C61.4369 53.6242 61.3771 57.7538 60.4195 60.7462C59.821 62.8409 59.5218 63.1401 57.9657 63.1401C56.29 63.1401 56.1703 63.2598 56.29 65.4144C56.4097 67.3894 56.29 67.6288 54.9733 67.6288C52.9983 67.6288 53.0582 66.5515 55.2725 62.6613C57.1877 59.25 57.3672 58.6515 56.5892 58.6515C56.29 58.6515 55.5718 59.7288 54.9733 61.0454C54.3748 62.4219 53.6566 63.6189 53.4172 63.7985C53.118 63.978 52.34 62.9007 51.6218 61.5242C50.9036 60.0879 50.1854 59.25 50.0657 59.6689C49.946 60.028 50.365 61.4644 51.0832 62.8409C52.7589 66.0727 52.6392 73.0151 50.9635 73.0151C50.1854 73.0151 49.8862 72.5363 49.8862 71.2795C49.8862 70.3219 48.8089 67.4492 47.4922 64.8757C46.1756 62.3022 45.0983 59.5492 45.0983 58.7712C45.0983 57.9932 45.9362 55.5992 46.9536 53.4447C48.39 50.3924 48.9885 49.6742 49.7665 50.0333C52.2801 51.1106 54.9733 50.931 57.068 49.4947C58.2051 48.6568 59.3422 48.1182 59.5816 48.2379C59.821 48.4174 60.2998 49.4947 60.6589 50.7515ZM15.7725 50.2727C15.7725 50.9909 14.0968 51.7689 13.618 51.2901C13.0794 50.7515 13.9771 49.6742 14.9347 49.6742C15.4135 49.6742 15.7725 49.9735 15.7725 50.2727ZM44.7392 50.6318C45.8763 51.7689 45.9362 52.7863 44.9786 53.7439C42.8241 55.8985 39.2332 53.0856 41.268 50.8113C42.5248 49.4348 43.4824 49.375 44.7392 50.6318ZM31.9316 53.5644C31.9316 57.0356 31.393 57.5742 28.9392 56.2576C27.7422 55.5992 26.7248 52.0083 27.443 50.931C27.6225 50.5719 28.7597 50.2727 29.8968 50.2727H31.9316V53.5644ZM38.0362 57.275C38.9339 58.053 39.1135 59.1303 39.1135 63.2598C39.1135 67.9879 39.1733 68.2871 40.6097 68.9454C41.4475 69.3045 42.1059 69.8432 42.1059 70.1424C42.1059 70.9204 40.071 70.681 38.7544 69.7833C37.7968 69.0651 37.5574 68.0477 37.4377 63.6189C37.318 60.7462 36.9589 58.1129 36.6597 57.7538C35.2233 56.2576 36.4203 55.7788 38.0362 57.275ZM19.3635 64.2772C19.3635 64.4568 19.1241 65.2348 18.8248 66.0727C18.1665 67.7485 18.8248 68.5863 21.1589 68.9454C23.0741 69.1848 23.6127 72.2371 21.9968 73.4341C19.1839 75.4689 14.5756 73.4939 14.5756 70.3219C14.5756 68.4068 16.0119 65.4742 17.3885 64.6962C18.5256 64.0379 19.3635 63.8583 19.3635 64.2772ZM47.193 66.6113C48.0309 68.0477 48.6892 69.4242 48.6892 69.6038C48.6892 69.8432 47.9112 70.0227 46.9536 70.0227C45.9362 70.0227 44.9786 70.2621 44.7991 70.6212C44.1407 71.7583 43.3029 71.2197 43.3029 69.7235C43.3029 68.1674 44.7991 64.0379 45.3377 64.0379C45.5172 64.0379 46.3551 65.2348 47.193 66.6113ZM59.7013 65.7136C63.3521 69.6038 61.9756 74.2121 57.068 74.2121C55.2127 74.2121 54.4945 73.9129 53.7763 72.7757C52.5195 70.8606 53.4172 69.0053 55.6915 68.706C57.2475 68.5265 57.3672 68.3469 57.2475 66.2522C57.068 63.6189 57.5468 63.4992 59.7013 65.7136ZM48.5695 72.5363C48.7491 73.3742 48.39 73.6136 47.0135 73.6136C44.9188 73.6136 44.3203 73.075 45.218 71.9977C46.1157 70.8606 48.3301 71.2795 48.5695 72.5363Z" fill="#594DB3"/>
<path d="M31.0337 25.1367C30.5549 25.9746 31.2132 26.9321 32.2905 26.9321C32.7693 26.9321 33.1284 26.3935 33.1284 25.7352C33.1284 24.4783 31.692 24.0594 31.0337 25.1367Z" fill="#594DB3"/>
<path d="M39.7109 25.735C39.7109 26.6327 40.0102 26.932 40.7882 26.8123C41.3268 26.6926 41.8056 26.2138 41.8056 25.735C41.8056 25.2562 41.3268 24.7774 40.7882 24.6577C40.0102 24.538 39.7109 24.8373 39.7109 25.735Z" fill="#594DB3"/>
<path d="M34.5055 33.6346C34.6252 34.0535 35.4631 34.4126 36.4207 34.4126C37.3782 34.4126 38.2161 34.0535 38.3957 33.6346C38.5154 33.1558 37.9169 32.9164 36.4207 32.9164C34.9244 32.9164 34.326 33.1558 34.5055 33.6346Z" fill="#594DB3"/>
<path d="M54.0742 41.5945C54.0742 42.0732 54.4932 42.4922 54.9719 42.4922C55.4507 42.4922 55.8697 42.0732 55.8697 41.5945C55.8697 41.1157 55.4507 40.6967 54.9719 40.6967C54.4932 40.6967 54.0742 41.1157 54.0742 41.5945Z" fill="#594DB3"/>
<path d="M49.409 43.2105C49.7681 44.2878 51.0848 44.4673 51.0848 43.4499C51.0848 42.9113 50.6658 42.4923 50.1272 42.4923C49.5886 42.4923 49.2893 42.7916 49.409 43.2105Z" fill="#594DB3"/>
<path d="M52.9977 44.7068C53.0575 45.3053 52.9378 46.1432 52.6386 46.5621C51.9802 47.6394 52.6984 48.2977 53.5962 47.4C54.0151 46.9811 54.7931 46.6818 55.3916 46.6818C55.9901 46.6818 56.4689 46.3826 56.4689 46.0834C56.4689 45.7243 56.0499 45.4849 55.5712 45.4849C55.0325 45.4849 54.4939 45.0659 54.3143 44.5871C53.8356 43.3303 52.7583 43.45 52.9977 44.7068Z" fill="#594DB3"/>
<path d="M22.3535 49.674C22.3535 49.9732 22.6528 50.2725 22.952 50.2725C23.3111 50.2725 23.5505 49.9732 23.5505 49.674C23.5505 49.3149 23.3111 49.0755 22.952 49.0755C22.6528 49.0755 22.3535 49.3149 22.3535 49.674Z" fill="#594DB3"/>
<path d="M42.2235 52.188C42.5826 53.2653 43.8992 53.4449 43.8992 52.4274C43.8992 51.8888 43.4803 51.4699 42.9416 51.4699C42.403 51.4699 42.1038 51.7691 42.2235 52.188Z" fill="#594DB3"/>
</svg>
