<svg width="81" height="80" viewBox="0 0 81 80" fill="none" xmlns="http://www.w3.org/2000/svg">
<path d="M35.8487 8.00466C32.1678 9.34317 28.8215 12.8902 27.3492 17.1065L26.1445 20.7205L17.5112 20.4528C7.40543 20.1851 6 20.6535 6 24.0667C6 25.6729 6.40155 26.543 7.33851 27.0784C8.61009 27.7476 8.67701 28.4838 8.67701 47.156C8.67701 63.8204 8.54316 66.5643 7.67313 66.5643C6.46848 66.5643 5.7323 69.3082 6.2677 71.5837L6.66925 73.2568H40.4665H74.2638L74.6654 71.5837C75.2008 69.3082 74.4646 66.5643 73.2599 66.5643C72.3899 66.5643 72.2561 63.8204 72.2561 47.156C72.2561 28.4838 72.323 27.7476 73.5946 27.0784C75.4685 26.0745 75.4685 22.059 73.5946 21.0551C71.8545 20.1181 68.7759 20.4528 68.3744 21.5236C68.2405 22.1259 68.9098 22.3936 70.5829 22.3936C72.7245 22.3936 72.9922 22.5944 72.7915 23.866L72.5907 25.4052L40.3327 25.606L8.00776 25.7399V24.0667V22.3936H17.9796C28.6208 22.3936 28.7546 22.3267 28.7546 18.9135C28.7546 16.2365 31.0301 12.8233 34.0417 10.9494C37.4549 8.74084 42.2735 8.33929 45.419 9.94549C47.8952 11.284 51.3754 15.2995 51.8438 17.3742C52.9816 22.929 52.1785 22.3936 58.9379 22.3936C63.4888 22.3936 64.9612 22.1928 64.7604 21.5236C64.5597 20.9882 62.6857 20.6535 59.4733 20.5197L54.4539 20.3189L53.6508 17.2404C52.1115 11.6186 45.8875 6.93385 40.1319 7.00078C39.195 7.0677 37.2541 7.46926 35.8487 8.00466ZM70.2483 46.8213V66.5643H66.902C61.8826 66.5643 62.8865 67.8359 68.1067 68.0367C72.4568 68.2374 72.5907 68.3044 72.7915 70.1113L72.9922 71.9183H40.5335H8.00776V69.9106V67.9028H34.1756C51.3754 67.9028 60.1426 67.702 59.8749 67.2336C59.6072 66.832 54.3201 66.5643 46.1552 66.5643H32.7701L32.6363 49.6322L32.4355 32.767L23.6014 32.5662L14.7003 32.3655V38.121C14.7003 41.4673 14.968 43.8097 15.3695 43.8097C15.7711 43.8097 16.0388 42.8727 16.0388 41.8019V39.7942H23.4006H30.7624V53.1792V66.5643H23.4006H16.0388V57.1948C16.0388 51.3723 15.7711 47.8252 15.3695 47.8252C14.968 47.8252 14.7003 51.3723 14.7003 57.1948V66.5643H12.6925H10.6848V46.8213V27.0784H40.4665H70.2483V46.8213ZM30.7624 36.1133V38.4557H23.4006H16.0388V36.1133V33.7709H23.4006H30.7624V36.1133Z" fill="#594DB3"/>
<path d="M36.3847 33.3024C36.2509 33.7708 36.1839 39.5933 36.2509 46.152L36.4516 58.1986L51.3091 58.3994L66.2334 58.5332L66.568 57.0608C66.7688 56.1908 66.8357 50.3683 66.7688 44.1443L66.568 32.767L55.9938 32.5662C48.8328 32.4323 45.5535 32.6331 45.8212 33.1016C46.0889 33.5031 49.9036 33.7708 55.5923 33.7708H64.8949V45.1481V56.5254H51.5098H38.1248V45.1481V33.7708H40.4672C41.7387 33.7708 42.8095 33.4362 42.8095 33.1016C42.8095 32.0977 36.7863 32.2985 36.3847 33.3024Z" fill="#594DB3"/>
<path d="M46.2887 36.5818C45.4187 37.4519 45.2849 39.0581 45.8872 40.7312C46.4895 42.2036 49.3004 42.0697 50.1704 40.5304C51.1074 38.7235 51.0404 38.0542 49.7689 36.8495C48.4973 35.578 47.3595 35.511 46.2887 36.5818ZM48.8319 39.125C48.8319 40.5304 47.828 40.932 47.1588 39.7943C46.6903 38.9912 47.2926 37.7865 48.2296 37.7865C48.5642 37.7865 48.8319 38.3888 48.8319 39.125Z" fill="#594DB3"/>
<path d="M52.7801 37.1839C51.7093 39.2586 53.0479 41.9356 54.9887 41.6679C57.0634 41.3333 57.9334 39.5932 56.9964 37.5186C56.0595 35.3769 53.851 35.2431 52.7801 37.1839ZM55.8587 39.1248C55.8587 39.5932 55.4572 40.1286 55.0556 40.2625C54.5202 40.4633 54.1856 39.9948 54.1856 39.1248C54.1856 38.2547 54.5202 37.7863 55.0556 37.9201C55.4572 38.1209 55.8587 38.6563 55.8587 39.1248Z" fill="#594DB3"/>
<path d="M40.9346 41.936C39.9307 42.9399 39.9307 45.3492 40.9346 46.353C43.1431 48.5616 46.0209 46.0184 44.8162 42.8729C44.147 40.999 42.2731 40.5975 40.9346 41.936ZM43.4777 44.4791C43.4777 45.2153 43.21 45.8176 42.8754 45.8176C41.9384 45.8176 41.3361 44.613 41.8046 43.8099C42.4738 42.6722 43.4777 43.0737 43.4777 44.4791Z" fill="#594DB3"/>
<path d="M58.3361 41.9356C56.4622 43.8095 58.1353 47.5573 60.6116 47.0219C62.4855 46.6873 63.2886 44.8134 62.3516 42.8726C61.5485 40.9986 59.6746 40.5971 58.3361 41.9356ZM60.8793 44.4788C60.8793 45.2149 60.6116 45.8173 60.21 45.8173C59.8754 45.8173 59.5408 45.2149 59.5408 44.4788C59.5408 43.7426 59.8754 43.1403 60.21 43.1403C60.6116 43.1403 60.8793 43.7426 60.8793 44.4788Z" fill="#594DB3"/>
<path d="M47.9611 45.6835C44.8156 48.8959 44.1464 50.7029 45.4849 53.1791C46.0203 54.2499 46.9572 54.3838 51.5082 54.3838C56.0591 54.3838 56.996 54.2499 57.5314 53.1791C58.8699 50.7029 58.2676 48.829 54.9883 45.6166C53.2482 43.8765 51.642 42.4711 51.4412 42.4711C51.3074 42.4711 49.7012 43.9434 47.9611 45.6835ZM54.5198 47.4905C56.996 50.569 57.1968 52.1753 55.1221 52.9784C54.5198 53.1791 53.449 53.0453 52.7797 52.6437C51.8428 52.0414 51.1066 52.0414 49.9019 52.6437C47.9611 53.4468 46.1541 52.5099 46.1541 50.636C46.1541 49.5652 50.6381 44.4788 51.5751 44.4788C51.8428 44.4788 53.1144 45.8173 54.5198 47.4905Z" fill="#594DB3"/>
<path d="M18.5154 50.9037C18.2477 51.1714 18.0469 52.9784 18.0469 54.9862V58.5332H20.3893H22.7986L22.5978 54.6515C22.397 51.1045 22.2632 50.8368 20.7239 50.636C19.7869 50.5022 18.7831 50.636 18.5154 50.9037ZM21.2593 54.6515C21.1254 55.8562 20.7908 56.8601 20.3893 56.8601C20.0546 56.8601 19.6531 55.8562 19.5192 54.6515C19.3185 53.0453 19.5862 52.5099 20.3893 52.5099C21.1924 52.5099 21.4601 53.0453 21.2593 54.6515Z" fill="#594DB3"/>
<path d="M38.6586 11.7526C37.9893 12.0872 37.4539 12.8234 37.4539 13.2919C37.4539 13.8273 36.8516 14.3627 36.1154 14.5634C34.3084 15.0319 34.1746 19.7167 35.9816 19.7167C36.5839 19.7167 37.4539 20.3859 37.7886 21.189C38.7255 23.3306 42.2056 23.3306 43.1426 21.256C43.4772 20.4529 44.2803 19.6498 44.9496 19.5159C46.7566 19.0474 46.6227 15.0319 44.8157 14.5634C44.0795 14.3627 43.4772 13.7603 43.4772 13.2919C43.4772 12.7564 42.6741 12.0203 41.7372 11.6856C39.7294 10.8825 40.064 10.8825 38.6586 11.7526ZM41.4695 14.2957C41.4695 15.0988 42.0049 15.7012 42.9418 15.835C45.0165 16.1027 45.2173 17.5751 43.2095 18.3782C42.2726 18.7128 41.4695 19.449 41.4695 20.0513C41.4695 20.5867 41.001 21.0552 40.4656 21.0552C39.9302 21.0552 39.4617 20.5867 39.4617 20.0513C39.4617 19.449 38.6586 18.7128 37.7216 18.3782C35.7139 17.5751 35.9147 16.1027 37.9893 15.835C38.9263 15.7012 39.4617 15.0988 39.4617 14.2957C39.4617 13.6265 39.9302 13.0241 40.4656 13.0241C41.001 13.0241 41.4695 13.6265 41.4695 14.2957Z" fill="#594DB3"/>
</svg>
