<svg width="78" height="77" viewBox="0 0 78 77" fill="none" xmlns="http://www.w3.org/2000/svg">
<path d="M43.5559 22.13C41.3616 22.7949 39.4332 23.7258 39.1008 24.1913C38.3028 25.5212 39.8987 28.7794 41.8935 29.8433C43.2899 30.5082 43.8218 31.3062 43.8218 32.636C43.8218 33.6334 44.0213 35.0963 44.2208 35.8942L44.6198 37.4236H35.3106C27.3978 37.4236 25.403 37.6231 22.4108 38.82C18.0886 40.5488 15.7614 40.6153 13.5671 39.1525C8.58001 35.8942 9.57742 28.5799 15.2959 26.5851C18.1551 25.5877 18.4876 24.3908 15.8279 24.5238C8.51351 24.9227 5.78726 35.8278 11.8382 40.5488C12.4367 41.0143 13.966 41.6792 15.2294 42.0782L17.5567 42.6766V46.9987C17.5567 50.124 17.8892 51.5868 18.7536 52.5177C19.352 53.2492 19.884 53.9806 19.884 54.2466C19.884 54.5126 15.4954 54.7785 10.1094 54.845L0.268257 55.0445L0.0687753 58.5022C-0.130707 61.4279 0.0687754 61.9599 1.13268 62.3589C1.86411 62.5583 2.86152 62.6248 3.32698 62.5583C4.05842 62.4254 4.2579 63.3563 4.2579 66.3485C4.2579 70.0057 4.12491 70.3381 2.72854 70.5376C-0.463177 71.0031 1.46515 72.0005 5.58778 72.0005C9.71041 72.0005 11.6387 71.0031 8.44702 70.5376C7.44961 70.4046 6.91766 69.8727 6.91766 69.0083C6.91766 67.6784 7.38312 67.6784 38.8348 67.6784C70.2864 67.6784 70.7519 67.6784 70.7519 69.0083C70.7519 69.8727 70.2199 70.4046 69.289 70.5376C66.0308 71.0031 67.9592 72.0005 72.0818 72.0005C76.2044 72.0005 78.1327 71.0031 74.941 70.5376C73.6111 70.3381 73.4117 69.8727 73.2122 66.4815C73.0127 62.8908 73.0792 62.6913 74.5421 62.6913C77.2018 62.6913 77.8003 61.8269 77.6008 58.3027L77.4013 55.0445L71.4833 54.845C65.8978 54.6456 65.4989 54.5791 63.77 52.7172C62.3737 51.1879 61.3098 50.7224 59.5144 50.7224C56.3892 50.7224 56.3227 49.193 59.3814 46.4668C61.7087 44.2725 61.9082 43.5411 62.8391 34.8968C63.1716 31.1732 63.4376 30.6412 65.1664 29.7103C66.7623 28.9124 68.4246 26.5186 68.4246 25.1222C68.4246 23.3269 60.1794 20.3346 57.3201 21.1326C56.3227 21.465 55.3253 21.6645 55.1258 21.6645C54.9263 21.6645 53.131 21.465 51.1362 21.2656C48.5429 20.9996 46.3486 21.2656 43.5559 22.13ZM47.8115 23.9918C47.8115 27.117 43.9548 29.3113 41.96 27.3165C40.5636 25.9201 41.0956 24.9227 44.0213 23.9253C47.6785 22.5954 47.8115 22.5954 47.8115 23.9918ZM64.302 24.5238C66.5628 25.4547 66.5628 25.5212 65.4324 26.7846C64.036 28.3139 61.6422 28.5134 60.5783 27.25C60.1794 26.7846 59.5144 25.5877 59.1154 24.5238C58.4505 22.7284 58.4505 22.6619 60.2458 23.1274C61.2433 23.3269 63.0386 23.9918 64.302 24.5238ZM56.1897 24.1248C56.5887 24.1248 57.3201 24.9892 57.7856 26.0531C58.1845 27.117 59.1819 28.5799 59.9134 29.2448C61.0438 30.2423 61.1768 30.9737 60.7778 35.0963C60.1129 42.3442 59.3149 44.6715 57.3201 45.4694C54.6604 46.4668 53.9954 45.2699 55.7243 42.4107C56.4557 41.0808 57.1206 39.6179 57.1206 39.086C57.1206 37.2906 51.8676 36.7587 50.4712 38.421C49.7398 39.2854 49.8728 39.9504 51.1362 42.1447C52.865 45.2699 52.3331 46.4668 49.6733 45.4694C47.612 44.6715 46.7476 42.2777 46.1491 35.5618C45.6837 30.8407 45.7502 30.7077 47.745 28.4469C48.8754 27.117 49.8063 25.6542 49.8063 25.1222C49.8063 24.1248 52.0006 23.4599 54.1284 23.8588C54.8598 23.9918 55.7907 24.1248 56.1897 24.1248ZM45.0187 42.2777C46.0161 46.2008 47.8115 47.6637 51.6681 47.7302C54.7933 47.7302 54.7933 47.7302 54.9928 50.1905C55.1923 52.6507 55.2588 52.7172 57.7856 52.7172C59.1819 52.7172 60.7778 52.9167 61.3762 53.1162C64.435 54.3131 61.1768 54.712 48.8754 54.712C35.8425 54.712 35.2441 54.6456 34.8451 53.3822C34.5127 52.4513 34.9781 51.4538 36.441 50.0575C38.3693 48.0626 39.6327 44.6715 38.8348 43.4081C38.0369 42.1447 37.3054 42.7431 36.9065 44.9374C36.3745 47.8632 34.1802 49.858 30.8555 50.5894C27.9298 51.1879 27.5308 52.2518 30.1241 52.5842C30.9885 52.7172 32.1189 53.2492 32.5178 53.7811C33.2493 54.5791 32.7173 54.712 29.2596 54.712C22.7432 54.712 19.219 52.1188 19.219 47.3977C19.2855 40.9478 22.2778 39.4184 34.9116 39.4184H44.3538L45.0187 42.2777ZM54.4609 40.4158C54.4609 40.9478 53.9954 41.4132 53.4635 41.4132C52.9315 41.4132 52.466 40.9478 52.466 40.4158C52.466 39.8839 52.9315 39.4184 53.4635 39.4184C53.9954 39.4184 54.4609 39.8839 54.4609 40.4158ZM75.4065 58.3692C75.4065 59.6991 74.8745 59.6991 46.2821 59.8986C19.0196 60.0316 17.1577 60.0981 17.3572 61.2285C17.5567 62.2924 19.5515 62.3589 44.3538 62.5583C70.5524 62.6913 71.0844 62.7578 71.0844 64.0212C71.0844 65.3511 70.5524 65.3511 38.8348 65.3511C7.05065 65.3511 6.58519 65.3511 6.58519 64.0212C6.58519 63.0238 7.05065 62.6913 8.44702 62.6913C9.44443 62.6913 10.6413 62.4254 11.1733 62.0929C13.0351 60.896 11.1068 60.0316 6.51869 60.0316C2.0636 60.0316 1.93061 59.9651 1.93061 58.3692V56.7069L38.7018 56.8399C74.8745 57.0393 75.4065 57.0393 75.4065 58.3692Z" fill="#594DB3"/>
<path d="M49.1406 32.4363C49.1406 32.9685 49.4732 33.4341 49.8058 33.4341C50.2049 33.4341 50.471 32.9685 50.471 32.4363C50.471 31.9042 50.2049 31.4386 49.8058 31.4386C49.4732 31.4386 49.1406 31.9042 49.1406 32.4363Z" fill="#594DB3"/>
<path d="M55.791 32.4363C55.791 33.035 56.1236 33.4341 56.5227 33.301C56.9218 33.168 57.2544 32.7689 57.2544 32.4363C57.2544 32.1037 56.9218 31.7046 56.5227 31.5716C56.1236 31.4386 55.791 31.8377 55.791 32.4363Z" fill="#594DB3"/>
</svg>
