<svg width="583" height="870" viewBox="0 0 583 870" fill="none" xmlns="http://www.w3.org/2000/svg">
<path d="M405.49 850.399C405.49 850.399 404.603 848.064 401.859 845.901C399.135 843.748 398.051 842.219 397.168 839.834C396.686 838.563 394.096 834.226 389.098 834.997C384.094 835.566 382.968 840.611 382.764 841.958C382.416 844.142 381.866 846.073 379.837 848.872C377.795 851.663 377.584 854.162 377.584 854.162C377.523 859.462 382.554 860.975 385.551 860.281C385.879 860.198 386.703 859.979 386.996 859.804C388.583 858.874 390.527 858.056 392.315 857.791C394.254 857.499 396.043 857.825 397.989 858.325C398.34 858.417 398.697 858.468 399.033 858.434C403.265 858.239 407.019 855.477 405.49 850.399Z" fill="#19D1AA"/>
<path d="M401.649 824.674C401.769 829.32 399.029 833.121 395.558 833.186C392.088 833.251 389.177 829.529 389.064 824.887C388.969 820.246 391.702 816.441 395.172 816.376C398.646 816.322 401.56 820.037 401.649 824.674Z" fill="#19D1AA"/>
<path d="M409.884 838.5C409.226 842.255 406.414 844.886 403.581 844.361C400.775 843.853 399.05 840.395 399.705 836.629C400.384 832.886 403.198 830.266 406.031 830.791C408.834 831.306 410.563 834.757 409.884 838.5Z" fill="#19D1AA"/>
<path d="M370.1 843.977C371.799 847.402 375.264 849.169 377.815 847.906C380.368 846.653 381.068 842.86 379.358 839.438C377.665 836.017 374.216 834.268 371.646 835.502C369.095 836.765 368.4 840.552 370.1 843.977Z" fill="#19D1AA"/>
<path d="M374.697 828.349C375.889 832.843 379.555 835.777 382.937 834.934C386.29 834.066 388.047 829.718 386.859 825.218C385.687 820.736 382.006 817.783 378.636 818.651C375.287 819.513 373.529 823.86 374.697 828.349Z" fill="#19D1AA"/>
<path d="M437.834 788.421C437.834 788.421 436.776 786.147 433.9 784.191C431.027 782.228 429.837 780.771 428.766 778.444C428.199 777.212 425.294 773.055 420.4 774.2C415.438 775.109 414.671 780.232 414.56 781.59C414.366 783.785 413.956 785.753 412.126 788.688C410.306 791.638 410.255 794.124 410.255 794.124C410.59 799.426 415.704 800.586 418.637 799.666C418.976 799.58 419.776 799.293 420.053 799.1L420.057 799.093C421.579 798.061 423.442 797.106 425.214 796.715C427.111 796.282 428.918 796.485 430.909 796.85C431.248 796.917 431.614 796.937 431.954 796.897C436.166 796.386 439.691 793.372 437.834 788.421Z" fill="#19D1AA"/>
<path d="M432.175 763.015C432.595 767.624 430.137 771.619 426.675 771.913C423.235 772.229 420.077 768.727 419.634 764.095C419.207 759.482 421.672 755.49 425.134 755.197C428.586 754.889 431.731 758.383 432.175 763.015Z" fill="#19D1AA"/>
<path d="M441.354 776.219C440.956 780.021 438.319 782.828 435.489 782.511C432.648 782.197 430.662 778.861 431.082 775.082C431.47 771.282 434.113 768.48 436.947 768.79C439.784 769.111 441.748 772.424 441.354 776.219Z" fill="#19D1AA"/>
<path d="M402.083 784.49C404.027 787.791 407.583 789.3 410.045 787.867C412.513 786.439 412.924 782.6 410.987 779.302C409.039 776.008 405.483 774.5 403.021 775.932C400.557 777.354 400.122 781.188 402.083 784.49Z" fill="#19D1AA"/>
<path d="M405.541 768.553C407.044 772.962 410.932 775.643 414.214 774.544C417.493 773.435 418.959 768.986 417.459 764.587C415.976 760.19 412.088 757.509 408.782 758.602C405.5 759.701 404.061 764.165 405.541 768.553Z" fill="#19D1AA"/>
<path d="M375.602 751.933C375.602 751.933 373.767 750.21 370.367 749.456C366.971 748.697 365.337 747.791 363.488 746.032C362.481 745.086 358.259 742.315 354.146 745.195C349.89 747.891 351.1 752.933 351.51 754.232C352.148 756.347 352.51 758.335 351.923 761.756C351.32 765.159 352.237 767.502 352.237 767.502C354.488 772.292 359.656 771.461 362.058 769.537C362.31 769.31 362.965 768.767 363.141 768.469C364.167 766.937 365.553 765.359 367.028 764.345C368.642 763.233 370.372 762.746 372.339 762.345C372.343 762.338 372.343 762.338 372.343 762.338C372.705 762.275 373.025 762.161 373.329 761.983C377.053 759.956 379.18 755.836 375.602 751.933Z" fill="#19D1AA"/>
<path d="M360.844 730.4C362.983 734.542 362.202 739.173 359.12 740.739C356.014 742.301 351.779 740.22 349.671 736.087C347.528 731.952 348.309 727.321 351.391 725.754C354.477 724.181 358.731 726.274 360.844 730.4Z" fill="#19D1AA"/>
<path d="M374.325 739.286C375.352 742.948 373.982 746.55 371.234 747.311C368.505 748.084 365.421 745.719 364.374 742.045C363.32 738.367 364.71 734.777 367.465 734.02C370.193 733.247 373.277 735.612 374.325 739.286Z" fill="#19D1AA"/>
<path d="M341.037 761.579C344.078 763.928 347.947 764.01 349.669 761.745C351.419 759.506 350.378 755.791 347.338 753.443C344.325 751.11 340.462 751.032 338.711 753.271C336.963 755.52 338.008 759.228 341.037 761.579Z" fill="#19D1AA"/>
<path d="M338.314 745.488C341.332 749.014 345.926 750.063 348.568 747.825C351.194 745.567 350.886 740.89 347.851 737.363C344.817 733.819 340.219 732.776 337.597 735.027C334.954 737.265 335.263 741.943 338.314 745.488Z" fill="#19D1AA"/>
<path d="M396.999 692.616C396.999 692.616 395.345 690.741 392.022 689.675C388.699 688.609 387.168 687.559 385.46 685.624C384.579 684.618 380.61 681.45 376.239 683.945C371.765 686.235 372.509 691.376 372.783 692.693C373.229 694.874 373.396 696.871 372.502 700.218C371.588 703.553 372.275 705.965 372.275 705.965C374.109 710.956 379.328 710.603 381.881 708.893C382.162 708.693 382.838 708.207 383.061 707.937L383.065 707.93C384.228 706.515 385.741 705.057 387.314 704.182C389.011 703.218 390.803 702.901 392.795 702.686C393.145 702.642 393.478 702.553 393.823 702.426C397.704 700.743 400.219 696.835 396.999 692.616Z" fill="#19D1AA"/>
<path d="M384.323 669.865C386.052 674.167 384.848 678.69 381.639 679.985C378.408 681.256 374.386 678.801 372.635 674.476C370.899 670.171 372.103 665.647 375.335 664.375C378.55 663.085 382.571 665.541 384.323 669.865Z" fill="#19D1AA"/>
<path d="M396.904 679.919C397.599 683.67 395.89 687.116 393.082 687.627C390.279 688.132 387.442 685.501 386.736 681.752C386.044 678.011 387.744 674.551 390.541 674.043C393.348 673.531 396.209 676.167 396.904 679.919Z" fill="#19D1AA"/>
<path d="M361.708 699.066C364.505 701.673 368.345 702.096 370.278 700.019C372.219 697.946 371.53 694.153 368.733 691.546C365.937 688.94 362.075 688.494 360.137 690.578C358.196 692.651 358.905 696.455 361.708 699.066Z" fill="#19D1AA"/>
<path d="M360.441 682.782C363.135 686.581 367.621 688.041 370.444 686.044C373.301 684.066 373.4 679.371 370.693 675.564C368.002 671.775 363.514 670.305 360.69 672.302C357.86 674.295 357.751 678.993 360.441 682.782Z" fill="#19D1AA"/>
<path d="M331.785 674.121C331.785 674.121 330.89 671.772 328.165 669.62C325.435 667.464 324.354 665.928 323.451 663.53C322.97 662.26 320.386 657.926 315.399 658.695C310.395 659.265 309.265 664.316 309.058 665.653C308.706 667.843 308.149 669.769 306.127 672.573C304.085 675.364 303.878 677.856 303.878 677.856C303.804 683.148 308.833 684.679 311.85 683.996C312.159 683.902 312.986 683.676 313.279 683.501C314.87 682.581 316.82 681.768 318.608 681.502C320.547 681.21 322.342 681.54 324.258 682.031C324.262 682.025 324.262 682.025 324.262 682.025C324.633 682.128 324.964 682.163 325.329 682.156C329.554 681.957 333.308 679.195 331.785 674.121Z" fill="#19D1AA"/>
<path d="M327.954 648.382C328.07 653.035 325.323 656.832 321.836 656.878C318.376 656.94 315.486 653.23 315.366 648.584C315.277 643.947 318.017 640.146 321.477 640.084C324.974 640.036 327.861 643.752 327.954 648.382Z" fill="#19D1AA"/>
<path d="M336.198 662.223C335.503 665.965 332.678 668.588 329.869 668.069C327.086 667.565 325.334 664.092 326.016 660.359C326.685 656.602 329.503 653.975 332.319 654.498C335.132 655.011 336.857 658.469 336.198 662.223Z" fill="#19D1AA"/>
<path d="M296.418 667.676C298.117 671.101 301.556 672.853 304.123 671.608C306.67 670.351 307.382 666.566 305.683 663.141C303.98 659.723 300.518 657.949 297.974 659.216C295.407 660.461 294.695 664.246 296.418 667.676Z" fill="#19D1AA"/>
<path d="M301.022 652.052C302.221 656.55 305.876 659.487 309.262 658.638C312.617 657.78 314.375 653.432 313.207 648.943C312.012 644.439 308.33 641.487 304.978 642.355C301.616 643.209 299.854 647.564 301.022 652.052Z" fill="#19D1AA"/>
<path d="M380.414 624.733C380.414 624.733 380.033 622.26 377.778 619.589C375.558 616.921 374.816 615.21 374.432 612.681C374.216 611.344 372.568 606.571 367.52 606.319C362.504 605.843 360.361 610.553 359.868 611.81C359.093 613.893 358.145 615.659 355.589 617.994C353.011 620.307 352.291 622.691 352.291 622.691C351.14 627.855 355.758 630.369 358.847 630.311C359.187 630.298 360.024 630.239 360.347 630.135C360.351 630.128 360.351 630.128 360.378 630.144C362.118 629.564 364.173 629.152 365.977 629.255C367.949 629.377 369.624 630.047 371.436 630.942C371.738 631.086 372.087 631.212 372.436 631.276C376.626 631.942 380.865 630.005 380.414 624.733Z" fill="#19D1AA"/>
<path d="M381.971 598.806C381.121 603.37 377.649 606.522 374.238 605.879C370.827 605.218 368.749 601.005 369.598 596.441C370.451 591.888 373.914 588.721 377.328 589.375C380.735 590.025 382.816 594.249 381.971 598.806Z" fill="#19D1AA"/>
<path d="M387.191 614.013C385.775 617.543 382.463 619.528 379.801 618.442C377.165 617.372 376.174 613.633 377.594 610.097C379.035 606.573 382.343 604.594 384.979 605.664C387.631 606.753 388.625 610.485 387.191 614.013Z" fill="#19D1AA"/>
<path d="M347.086 611.227C348.056 614.926 351.077 617.352 353.839 616.644C356.604 615.946 358.034 612.363 357.092 608.679C356.119 604.987 353.098 602.56 350.333 603.258C347.581 603.964 346.117 607.527 347.086 611.227Z" fill="#19D1AA"/>
<path d="M354.779 596.868C355.021 601.506 358.021 605.138 361.497 604.987C364.984 604.834 367.582 600.939 367.36 596.313C367.112 591.671 364.112 588.04 360.662 588.206C357.185 588.357 354.557 592.242 354.779 596.868Z" fill="#19D1AA"/>
<path d="M393.885 550.153C393.885 550.153 394.531 547.743 393.53 544.401C392.566 541.072 392.587 539.213 393.24 536.744C393.584 535.435 394.003 530.428 389.481 528.177C385.054 525.722 381.183 529.167 380.246 530.124C378.666 531.695 377.105 532.945 373.817 534.04C370.522 535.131 368.898 537.033 368.898 537.033C365.76 541.279 368.965 545.417 371.825 546.593C372.142 546.728 372.951 547.019 373.293 547.051C375.14 547.233 377.193 547.69 378.81 548.504C380.573 549.389 381.83 550.689 383.143 552.228C383.37 552.497 383.624 552.737 383.907 552.914C387.512 555.221 392.166 555.151 393.885 550.153Z" fill="#19D1AA"/>
<path d="M405.725 527.064C403.129 530.896 398.658 532.391 395.789 530.422C392.936 528.471 392.723 523.77 395.343 519.96C397.963 516.132 402.41 514.632 405.29 516.599C408.169 518.565 408.355 523.251 405.725 527.064Z" fill="#19D1AA"/>
<path d="M404.419 543.067C401.677 545.703 397.843 546.197 395.861 544.162C393.855 542.105 394.455 538.297 397.195 535.651C399.935 533.004 403.744 532.505 405.753 534.556C407.756 536.602 407.153 540.417 404.419 543.067Z" fill="#19D1AA"/>
<path d="M368.736 524.448C368.123 528.203 369.919 531.632 372.756 532.104C375.555 532.564 378.332 529.886 378.945 526.131C379.539 522.364 377.742 518.936 374.932 518.479C372.106 518.003 369.336 520.685 368.736 524.448Z" fill="#19D1AA"/>
<path d="M381.595 514.432C379.939 518.76 381.216 523.277 384.468 524.524C387.719 525.771 391.684 523.278 393.363 518.955C395.015 514.634 393.711 510.101 390.46 508.854C387.208 507.607 383.244 510.1 381.595 514.432Z" fill="#19D1AA"/>
<path d="M446.344 462.908C446.344 462.908 446.985 460.504 446.015 457.171C445.021 453.833 445.041 451.974 445.692 449.495C446.042 448.189 446.465 443.176 441.95 440.929C437.512 438.477 433.641 441.921 432.707 442.89C431.131 444.454 429.566 445.71 426.271 446.801C422.98 447.885 421.36 449.781 421.36 449.781C418.221 454.044 421.423 458.171 424.286 459.359C424.627 459.498 425.412 459.784 425.751 459.806C427.605 459.992 429.658 460.448 431.268 461.259C433.028 462.15 434.288 463.443 435.601 464.982C435.831 465.262 436.082 465.492 436.388 465.691C439.973 467.986 444.624 467.905 446.344 462.908Z" fill="#19D1AA"/>
<path d="M458.233 439.857C455.613 443.667 451.138 445.168 448.273 443.192C445.421 441.242 445.208 436.54 447.827 432.73C450.454 428.907 454.895 427.403 457.774 429.369C460.649 431.342 460.833 436.017 458.233 439.857Z" fill="#19D1AA"/>
<path d="M456.87 455.818C454.13 458.464 450.301 458.952 448.322 456.91C446.319 454.864 446.915 451.062 449.652 448.405C452.392 445.759 456.232 445.269 458.207 447.317C460.209 449.364 459.616 453.175 456.87 455.818Z" fill="#19D1AA"/>
<path d="M421.206 437.2C420.589 440.962 422.385 444.39 425.215 444.859C428.025 445.316 430.807 442.659 431.401 438.892C432.004 435.123 430.224 431.713 427.398 431.237C424.561 430.765 421.802 433.444 421.206 437.2Z" fill="#19D1AA"/>
<path d="M434.074 427.209C432.418 431.537 433.703 436.041 436.947 437.301C440.198 438.548 444.167 436.048 445.842 431.732C447.498 427.405 446.19 422.878 442.943 421.624C439.691 420.377 435.723 422.877 434.074 427.209Z" fill="#19D1AA"/>
<path d="M424.719 400.257C424.719 400.257 424.875 397.761 423.305 394.664C421.705 391.558 421.363 389.735 421.556 387.19C421.663 385.839 421.124 380.837 416.254 379.463C411.443 377.883 408.31 381.997 407.55 383.113C406.323 384.955 405.02 386.484 401.979 388.164C398.962 389.849 397.736 392.024 397.736 392.024C395.439 396.795 399.371 400.253 402.401 400.886C402.751 400.95 403.564 401.083 403.917 401.05C405.77 400.887 407.879 400.946 409.604 401.44C411.485 401.991 412.98 403.039 414.548 404.3C414.818 404.513 415.134 404.71 415.455 404.837C419.405 406.426 423.956 405.48 424.719 400.257Z" fill="#19D1AA"/>
<path d="M432.009 375.346C430.158 379.593 426.077 381.902 422.888 380.504C419.686 379.098 418.61 374.53 420.461 370.282C422.315 366.045 426.393 363.726 429.589 365.128C432.778 366.526 433.867 371.102 432.009 375.346Z" fill="#19D1AA"/>
<path d="M433.706 391.313C431.527 394.426 427.86 395.628 425.51 393.984C423.16 392.34 423.038 388.489 425.22 385.369C427.423 382.261 431.066 381.055 433.42 382.692C435.766 384.342 435.882 388.189 433.706 391.313Z" fill="#19D1AA"/>
<path d="M395.214 379.696C395.306 383.492 397.716 386.524 400.576 386.455C403.425 386.39 405.655 383.253 405.53 379.436C405.431 375.635 403.025 372.597 400.169 372.659C397.312 372.738 395.089 375.879 395.214 379.696Z" fill="#19D1AA"/>
<path d="M405.924 367.421C405.135 372.003 407.25 376.202 410.679 376.83C414.086 377.435 417.513 374.238 418.324 369.678C419.146 365.116 417.008 360.911 413.598 360.296C410.162 359.664 406.748 362.869 405.924 367.421Z" fill="#19D1AA"/>
<path d="M479.161 350.573C479.161 350.573 478.776 348.107 476.549 345.435C474.316 342.759 473.587 341.055 473.179 338.522C472.99 337.183 471.349 332.414 466.305 332.155C461.259 331.67 459.126 336.378 458.636 337.645C457.845 339.71 456.913 341.494 454.328 343.803C451.777 346.131 451.05 348.512 451.05 348.512C449.895 353.682 454.493 356.184 457.581 356.126C457.949 356.129 458.768 356.068 459.122 355.974C460.849 355.386 462.93 354.99 464.734 355.093C466.68 355.199 468.378 355.891 470.187 356.776C470.485 356.926 470.847 357.06 471.174 357.101C475.377 357.776 479.608 355.852 479.161 350.573Z" fill="#19D1AA"/>
<path d="M480.716 324.636C479.847 329.188 476.401 332.356 472.978 331.688C469.557 331.03 467.489 326.813 468.341 322.26C469.208 317.698 472.66 314.534 476.084 315.202C479.505 315.86 481.573 320.076 480.716 324.636Z" fill="#19D1AA"/>
<path d="M485.919 339.842C484.512 343.386 481.184 345.353 478.541 344.279C475.91 343.202 474.912 339.459 476.346 335.931C477.78 332.403 481.088 330.425 483.726 331.505C486.389 332.591 487.359 336.318 485.919 339.842Z" fill="#19D1AA"/>
<path d="M445.831 337.029C446.8 340.728 449.81 343.157 452.579 342.453C455.353 341.77 456.815 338.195 455.839 334.492C454.89 330.805 451.855 328.37 449.097 329.072C446.339 329.774 444.881 333.341 445.831 337.029Z" fill="#19D1AA"/>
<path d="M453.564 322.694C453.808 327.343 456.802 330.971 460.265 330.812C463.748 330.666 466.379 326.79 466.154 322.154C465.906 317.512 462.912 313.884 459.433 314.024C455.977 314.187 453.346 318.062 453.564 322.694Z" fill="#19D1AA"/>
<path d="M438.79 308.028C438.79 308.028 438.414 305.576 436.178 302.889C433.934 300.216 433.212 298.517 432.821 295.984C432.615 294.644 430.954 289.864 425.914 289.597C420.901 289.133 418.751 293.839 418.265 295.1C417.47 297.171 416.549 298.953 413.977 301.269C411.406 303.586 410.686 305.97 410.686 305.97C409.524 311.137 414.125 313.649 417.224 313.588C417.561 313.582 418.413 313.541 418.751 313.428C420.491 312.848 422.559 312.445 424.363 312.547C426.329 312.665 428.009 313.357 429.792 314.225C429.818 314.241 429.818 314.241 429.818 314.241C430.123 314.395 430.456 314.503 430.823 314.568C435.016 315.245 439.223 313.298 438.79 308.028Z" fill="#19D1AA"/>
<path d="M440.335 282.093C439.489 286.651 436.024 289.807 432.616 289.157C429.182 288.491 427.132 284.276 427.964 279.711C428.834 275.159 432.299 272.003 435.713 272.657C439.121 273.307 441.205 277.542 440.335 282.093Z" fill="#19D1AA"/>
<path d="M445.567 297.309C444.14 300.841 440.815 302.818 438.177 301.737C435.531 300.652 434.561 296.926 435.984 293.4C437.411 289.868 440.716 287.879 443.359 288.953C446.031 290.053 446.997 293.787 445.567 297.309Z" fill="#19D1AA"/>
<path d="M405.446 294.475C406.402 298.166 409.429 300.597 412.181 299.891C414.959 299.201 416.412 295.64 415.46 291.942C414.485 288.239 411.477 285.821 408.699 286.51C405.947 287.216 404.477 290.776 405.446 294.475Z" fill="#19D1AA"/>
<path d="M413.178 280.141C413.4 284.767 416.416 288.417 419.879 288.258C423.343 288.1 425.973 284.225 425.755 279.592C425.52 274.959 422.518 271.316 419.048 271.471C415.584 271.629 412.954 275.504 413.178 280.141Z" fill="#19D1AA"/>
<path d="M485.775 253.449C485.775 253.449 484.957 251.075 482.308 248.842C479.648 246.612 478.607 245.054 477.786 242.625C477.327 241.332 474.894 236.926 469.875 237.551C464.858 237.96 463.567 242.979 463.319 244.309C462.912 246.485 462.288 248.389 460.163 251.123C458.045 253.86 457.769 256.347 457.769 256.347C457.556 261.646 462.51 263.303 465.556 262.709C465.887 262.637 466.702 262.448 467.001 262.276C468.617 261.39 470.595 260.637 472.382 260.434C474.337 260.206 476.105 260.582 478.033 261.143C478.033 261.143 478.033 261.143 478.037 261.137C478.374 261.238 478.738 261.292 479.075 261.286C483.329 261.221 487.148 258.578 485.775 253.449Z" fill="#19D1AA"/>
<path d="M482.743 227.622C482.684 232.251 479.851 235.98 476.361 235.925C472.902 235.88 470.105 232.073 470.164 227.444C470.187 222.801 473.029 219.07 476.515 219.131C479.979 219.17 482.769 222.973 482.743 227.622Z" fill="#19D1AA"/>
<path d="M490.544 241.692C489.759 245.417 486.837 247.946 484.047 247.349C481.261 246.745 479.636 243.239 480.421 239.514C481.203 235.779 484.102 233.245 486.918 233.858C489.704 234.462 491.329 237.967 490.544 241.692Z" fill="#19D1AA"/>
<path d="M450.609 245.934C452.178 249.397 455.597 251.272 458.187 250.095C460.78 248.928 461.592 245.157 459.986 241.68C458.381 238.204 454.992 236.338 452.402 237.515C449.808 238.699 449.004 242.457 450.609 245.934Z" fill="#19D1AA"/>
<path d="M455.688 230.466C456.731 234.997 460.32 238.046 463.7 237.283C467.106 236.536 468.985 232.242 467.968 227.727C466.925 223.196 463.31 220.131 459.93 220.893C456.55 221.656 454.637 225.93 455.688 230.466Z" fill="#19D1AA"/>
<path d="M336.747 578.551C336.747 578.551 336.707 576.065 334.836 573.111C332.978 570.183 332.467 568.385 332.428 565.837C332.384 564.468 331.393 559.529 326.428 558.619C321.507 557.483 318.748 561.864 318.1 563.047C317.053 564.996 315.885 566.632 313.021 568.577C310.178 570.545 309.15 572.827 309.15 572.827C307.305 577.777 311.556 580.879 314.614 581.223C314.955 581.255 315.801 581.318 316.145 581.254C317.959 580.914 320.077 580.791 321.847 581.133C323.769 581.493 325.34 582.398 327.019 583.518C327.324 583.717 327.629 583.871 327.966 583.972C332.052 585.195 336.51 583.844 336.747 578.551Z" fill="#19D1AA"/>
<path d="M341.713 553.06C340.263 557.465 336.408 560.14 333.104 559.041C329.811 557.94 328.312 553.478 329.764 549.084C331.22 544.682 335.076 542.008 338.375 543.113C341.676 544.202 343.175 548.663 341.713 553.06Z" fill="#19D1AA"/>
<path d="M344.865 568.806C342.978 572.11 339.441 573.639 336.971 572.229C334.468 570.799 333.979 566.972 335.87 563.661C337.77 560.365 341.3 558.832 343.804 560.262C346.274 561.673 346.759 565.505 344.865 568.806Z" fill="#19D1AA"/>
<path d="M305.47 560.753C305.931 564.535 308.596 567.333 311.433 567C314.266 566.674 316.187 563.327 315.72 559.541C315.259 555.759 312.594 552.961 309.757 553.293C306.924 553.62 305.007 556.96 305.47 560.753Z" fill="#19D1AA"/>
<path d="M315.021 547.559C314.65 552.183 317.146 556.178 320.618 556.491C324.074 556.785 327.202 553.303 327.57 548.669C327.959 544.047 325.476 540.059 321.997 539.743C318.552 539.446 315.417 542.941 315.021 547.559Z" fill="#19D1AA"/>
<path d="M379.987 487.784C379.987 487.784 380.904 485.462 380.321 482.037C379.742 478.623 379.974 476.773 380.918 474.405C381.404 473.144 382.407 468.215 378.171 465.453C374.069 462.51 369.828 465.485 368.767 466.333C367.034 467.705 365.316 468.764 361.916 469.47C358.517 470.159 356.682 471.856 356.682 471.856C353.067 475.72 355.79 480.199 358.5 481.707C358.797 481.874 359.535 482.24 359.883 482.321C361.695 482.715 363.697 483.41 365.194 484.395C366.834 485.475 367.948 486.923 369.044 488.584C369.071 488.6 369.071 488.6 369.071 488.6C369.259 488.891 369.497 489.157 369.759 489.384C373.057 492.073 377.694 492.548 379.987 487.784Z" fill="#19D1AA"/>
<path d="M394.47 466.252C391.412 469.739 386.82 470.723 384.195 468.433C381.567 466.15 381.912 461.466 384.966 457.985C388.013 454.501 392.606 453.516 395.234 455.8C397.859 458.09 397.518 462.767 394.47 466.252Z" fill="#19D1AA"/>
<path d="M391.269 481.956C388.226 484.262 384.355 484.303 382.617 482.038C380.865 479.781 381.919 476.073 384.935 473.751C387.973 471.452 391.838 471.406 393.586 473.669C395.335 475.932 394.285 479.634 391.269 481.956Z" fill="#19D1AA"/>
<path d="M357.962 459.329C356.908 462.992 358.299 466.602 361.042 467.386C363.811 468.186 366.876 465.857 367.926 462.201C368.95 458.528 367.576 454.92 364.813 454.124C362.071 453.34 359.006 455.668 357.962 459.329Z" fill="#19D1AA"/>
<path d="M371.923 450.899C369.763 454.999 370.536 459.638 373.61 461.245C376.673 462.855 380.933 460.851 383.07 456.745C385.241 452.642 384.462 447.999 381.398 446.389C378.297 444.766 374.064 446.787 371.923 450.899Z" fill="#19D1AA"/>
<path d="M438.158 216.85C438.158 216.85 437.774 214.366 435.607 211.685C433.402 208.991 432.675 207.27 432.299 204.728C432.121 203.387 430.519 198.597 425.485 198.29C420.46 197.755 418.253 202.436 417.78 203.705C416.958 205.76 416.01 207.526 413.409 209.816C410.808 212.106 410.071 214.49 410.071 214.49C408.862 219.646 413.439 222.198 416.511 222.166C416.882 222.18 417.711 222.134 418.037 222.023C418.041 222.017 418.041 222.017 418.041 222.017C419.794 221.462 421.86 221.075 423.666 221.206C425.638 221.345 427.303 222.046 429.094 222.946C429.405 223.104 429.761 223.234 430.108 223.287C434.281 223.997 438.529 222.12 438.158 216.85Z" fill="#19D1AA"/>
<path d="M439.996 190.938C439.082 195.473 435.58 198.599 432.166 197.9C428.768 197.219 426.727 192.956 427.638 188.411C428.545 183.872 432.043 180.753 435.461 181.445C438.855 182.132 440.884 186.37 439.996 190.938Z" fill="#19D1AA"/>
<path d="M445.021 206.182C443.547 209.687 440.21 211.639 437.591 210.525C434.957 209.42 433.999 205.674 435.476 202.163C436.95 198.658 440.277 196.709 442.91 197.813C445.544 198.918 446.499 202.671 445.021 206.182Z" fill="#19D1AA"/>
<path d="M404.952 202.941C405.886 206.655 408.881 209.111 411.64 208.437C414.42 207.775 415.921 204.224 414.988 200.51C414.081 196.812 411.087 194.356 408.3 195.015C405.543 195.699 404.046 199.243 404.952 202.941Z" fill="#19D1AA"/>
<path d="M412.849 188.695C413.032 193.325 415.992 196.995 419.459 196.875C422.936 196.769 425.586 192.906 425.431 188.275C425.248 183.645 422.275 179.967 418.794 180.079C415.327 180.199 412.674 184.052 412.849 188.695Z" fill="#19D1AA"/>
<path d="M482.733 158.524C482.733 158.524 481.56 156.307 478.574 154.492C475.609 152.699 474.355 151.32 473.156 149.042C472.521 147.833 469.417 143.845 464.568 145.232C459.678 146.415 459.176 151.561 459.145 152.922C459.068 155.132 458.767 157.13 457.097 160.16C455.411 163.171 455.512 165.675 455.512 165.675C456.109 170.944 461.283 171.836 464.163 170.777C464.501 170.663 465.26 170.325 465.547 170.129L465.551 170.122C467.019 169.014 468.847 167.966 470.574 167.486C472.463 166.958 474.284 167.062 476.248 167.304C476.623 167.356 476.967 167.354 477.327 167.308C481.482 166.575 484.864 163.378 482.733 158.524Z" fill="#19D1AA"/>
<path d="M475.752 133.446C476.424 138.042 474.182 142.157 470.742 142.643C467.295 143.124 463.965 139.789 463.297 135.203C462.625 130.606 464.86 126.487 468.307 126.006C471.751 125.531 475.084 128.859 475.752 133.446Z" fill="#19D1AA"/>
<path d="M485.608 146.164C485.421 149.975 482.938 152.917 480.097 152.755C477.239 152.592 475.096 149.369 475.286 145.552C475.5 141.757 477.98 138.804 480.827 138.97C483.675 139.136 485.823 142.352 485.608 146.164Z" fill="#19D1AA"/>
<path d="M446.828 156.48C448.946 159.67 452.598 161.002 454.968 159.435C457.345 157.871 457.569 154.029 455.461 150.837C453.343 147.647 449.725 146.335 447.328 147.886C444.955 149.443 444.727 153.292 446.828 156.48Z" fill="#19D1AA"/>
<path d="M449.475 140.403C451.197 144.718 455.221 147.185 458.435 145.912C461.676 144.654 462.877 140.12 461.156 135.805C459.435 131.49 455.414 129.017 452.18 130.278C448.966 131.551 447.754 136.088 449.475 140.403Z" fill="#19D1AA"/>
<path d="M429.229 126.611C429.229 126.611 427.714 124.638 424.465 123.356C421.236 122.087 419.744 120.925 418.198 118.898C417.377 117.821 413.62 114.403 409.097 116.592C404.48 118.591 404.875 123.759 405.067 125.108C405.367 127.291 405.398 129.306 404.27 132.577C403.148 135.851 403.673 138.294 403.673 138.294C405.166 143.404 410.402 143.401 413.053 141.848C413.355 141.687 414.067 141.232 414.319 140.987C415.561 139.637 417.17 138.29 418.796 137.508C420.574 136.682 422.358 136.469 424.387 136.391C424.738 136.375 425.076 136.307 425.416 136.204C429.39 134.773 432.177 131.044 429.229 126.611Z" fill="#19D1AA"/>
<path d="M418.084 103.073C419.525 107.482 418.017 111.924 414.727 112.991C411.411 114.042 407.566 111.333 406.13 106.918C404.673 102.491 406.176 98.0556 409.466 96.9887C412.78 95.927 416.624 98.653 418.084 103.073Z" fill="#19D1AA"/>
<path d="M429.989 113.945C430.421 117.729 428.504 121.069 425.675 121.389C422.836 121.711 420.165 118.892 419.722 115.111C419.262 111.311 421.195 107.989 424.035 107.667C426.871 107.352 429.546 110.164 429.989 113.945Z" fill="#19D1AA"/>
<path d="M393.547 130.697C396.185 133.496 399.996 134.179 402.076 132.235C404.14 130.288 403.694 126.452 401.083 123.668C398.448 120.88 394.634 120.186 392.564 122.128C390.49 124.077 390.936 127.913 393.547 130.697Z" fill="#19D1AA"/>
<path d="M393.41 114.393C395.832 118.345 400.217 120.112 403.196 118.323C406.138 116.522 406.556 111.836 404.126 107.88C401.694 103.914 397.312 102.157 394.339 103.95C391.394 105.758 390.973 110.433 393.41 114.393Z" fill="#19D1AA"/>
<path d="M458.235 62.8781C458.235 62.8781 456.352 61.2067 452.927 60.5554C449.502 59.9041 447.861 59.0564 445.946 57.3481C444.919 56.4352 440.609 53.7819 436.581 56.7928C432.421 59.6175 433.772 64.6175 434.211 65.8983C434.932 68.0092 435.354 69.9873 434.858 73.4085C434.368 76.8336 435.343 79.1397 435.343 79.1397C437.747 83.8684 442.894 82.8906 445.242 80.8895C445.5 80.6666 446.113 80.0895 446.289 79.7914C447.261 78.2278 448.595 76.601 450.046 75.5363C451.614 74.3799 453.351 73.8515 455.302 73.3874C455.654 73.3098 455.965 73.1806 456.275 73.0065C459.924 70.8631 461.938 66.676 458.235 62.8781Z" fill="#19D1AA"/>
<path d="M442.825 41.7916C445.09 45.8737 444.451 50.5084 441.387 52.1661C438.354 53.833 434.082 51.8913 431.824 47.8131C429.555 43.7376 430.198 39.0963 433.238 37.4334C436.271 35.7665 440.574 37.7174 442.825 41.7916Z" fill="#19D1AA"/>
<path d="M456.563 50.2744C457.707 53.907 456.469 57.5603 453.726 58.3876C451.013 59.2413 447.864 56.9713 446.7 53.3269C445.553 49.6837 446.824 46.0502 449.534 45.2031C452.28 44.3692 455.43 46.6392 456.563 50.2744Z" fill="#19D1AA"/>
<path d="M423.978 73.5571C427.074 75.8127 430.945 75.771 432.617 73.4673C434.292 71.1743 433.127 67.4849 430.032 65.2293C426.94 62.9842 423.062 63.022 421.394 65.319C419.722 67.6227 420.879 71.3081 423.978 73.5571Z" fill="#19D1AA"/>
<path d="M420.746 57.5498C423.901 60.996 428.519 61.8982 431.091 59.5817C433.635 57.2493 433.195 52.583 430.039 49.1369C426.911 45.7065 422.297 44.7977 419.725 47.1142C417.15 49.4374 417.621 54.1129 420.746 57.5498Z" fill="#19D1AA"/>
<path d="M393.988 56.2626C393.988 56.2626 392.629 54.1494 389.511 52.6149C386.391 51.0698 385.009 49.7848 383.624 47.6385C382.894 46.4987 379.438 42.7848 374.754 44.5921C369.973 46.1987 369.931 51.3756 370.002 52.7156C370.133 54.9418 370.015 56.949 368.613 60.1199C367.214 63.2841 367.519 65.748 367.519 65.748C368.568 70.9538 373.795 71.3927 376.594 70.089C376.893 69.9348 377.645 69.5478 377.907 69.3183C377.911 69.3117 377.911 69.3117 377.911 69.3117C379.269 68.0844 380.987 66.8734 382.668 66.2406C384.496 65.5427 386.318 65.4943 388.307 65.5725C388.334 65.5883 388.334 65.5883 388.334 65.5883C388.678 65.5861 389.033 65.564 389.363 65.464C393.455 64.3805 396.551 60.9063 393.988 56.2626Z" fill="#19D1AA"/>
<path d="M384.825 31.8592C385.907 36.3863 384.041 40.6881 380.647 41.4602C377.286 42.2521 373.665 39.2107 372.579 34.6902C371.52 30.1856 373.389 25.8772 376.747 25.0919C380.145 24.3131 383.769 27.3479 384.825 31.8592Z" fill="#19D1AA"/>
<path d="M395.787 43.6846C395.903 47.4866 393.689 50.6423 390.856 50.7263C387.988 50.8078 385.581 47.7871 385.428 43.972C385.312 40.1701 387.525 37.0144 390.363 36.9237C393.227 36.8488 395.638 39.863 395.787 43.6846Z" fill="#19D1AA"/>
<path d="M358.068 57.3441C360.443 60.3278 364.193 61.3421 366.411 59.5768C368.659 57.8207 368.534 53.9593 366.162 50.9689C363.764 47.9627 360.03 46.9669 357.786 48.7164C355.558 50.4843 355.697 54.3537 358.068 57.3441Z" fill="#19D1AA"/>
<mask id="mask0_2047_5" style="mask-type:luminance" maskUnits="userSpaceOnUse" x="353" y="26" width="24" height="24">
<path d="M361.125 26.9775L376.457 36.0664L368.414 49.6344L353.082 40.5456L361.125 26.9775Z" fill="white"/>
</mask>
<g mask="url(#mask0_2047_5)">
<path d="M359.28 41.0774C361.383 45.234 365.598 47.3478 368.685 45.8026C371.814 44.2638 372.615 39.6445 370.522 35.4852C368.408 31.3313 364.2 29.2214 361.102 30.7694C358.004 32.3173 357.179 36.9313 359.28 41.0774Z" fill="#19D1AA"/>
</g>
</svg>
