<svg width="596" height="463" viewBox="0 0 596 463" fill="none" xmlns="http://www.w3.org/2000/svg">
<path d="M108.276 456.451C108.276 456.451 108.933 454.814 108.54 452.382C108.151 449.965 108.319 448.653 109.004 446.991C109.362 446.1 110.092 442.609 107.114 440.633C104.23 438.55 101.221 440.641 100.468 441.246C99.2379 442.217 98.0247 442.961 95.6225 443.454C93.2172 443.936 91.9082 445.137 91.9082 445.137C89.3328 447.868 91.2312 451.049 93.1284 452.113C93.3395 452.226 93.8744 452.504 94.1116 452.552C95.3863 452.823 96.7929 453.322 97.8531 454.034C99.005 454.804 99.7818 455.825 100.557 457.011C100.697 457.226 100.859 457.422 101.05 457.564C103.352 459.476 106.636 459.824 108.276 456.451Z" fill="#19D1AA"/>
<path d="M118.618 441.228C116.451 443.705 113.197 444.381 111.355 442.764C109.513 441.146 109.78 437.824 111.949 435.353C114.127 432.89 117.379 432.209 119.221 433.826C121.059 435.45 120.797 438.771 118.618 441.228Z" fill="#19D1AA"/>
<path d="M116.28 452.346C114.135 453.988 111.405 454.021 110.178 452.4C108.958 450.8 109.717 448.179 111.867 446.53C114.017 444.903 116.743 444.878 117.97 446.498C119.185 448.1 118.431 450.72 116.28 452.346Z" fill="#19D1AA"/>
<path d="M92.8902 436.273C92.1333 438.865 93.0932 441.434 95.0305 441.989C96.9642 442.551 99.1497 440.908 99.8998 438.313C100.658 435.726 99.6979 433.174 97.7647 432.595C95.8273 432.04 93.6471 433.681 92.8902 436.273Z" fill="#19D1AA"/>
<path d="M102.79 430.321C101.255 433.228 101.76 436.5 103.929 437.67C106.095 438.813 109.099 437.385 110.639 434.476C112.178 431.585 111.674 428.295 109.499 427.144C107.338 426 104.335 427.428 102.79 430.321Z" fill="#19D1AA"/>
<path d="M154.898 439.561C154.898 439.561 155.438 437.874 154.876 435.487C154.319 433.099 154.397 431.774 154.955 430.052C155.25 429.141 155.73 425.595 152.626 423.863C149.601 421.975 146.742 424.279 146.032 424.933C144.878 425.984 143.719 426.814 141.356 427.472C138.99 428.142 137.77 429.413 137.77 429.413C135.401 432.333 137.512 435.369 139.484 436.285C139.702 436.402 140.258 436.634 140.495 436.664L140.5 436.663C141.79 436.849 143.22 437.238 144.332 437.878C145.53 438.554 146.376 439.52 147.239 440.657C147.384 440.853 147.566 441.038 147.762 441.178C150.206 442.916 153.491 443.023 154.898 439.561Z" fill="#19D1AA"/>
<path d="M164.139 423.639C162.147 426.239 158.946 427.15 156.999 425.656C155.053 424.184 155.085 420.859 157.077 418.236C159.068 415.63 162.27 414.724 164.217 416.218C166.167 417.7 166.131 421.016 164.139 423.639Z" fill="#19D1AA"/>
<path d="M162.591 434.882C160.559 436.673 157.836 436.88 156.512 435.369C155.18 433.854 155.744 431.172 157.778 429.404C159.803 427.61 162.527 427.408 163.857 428.917C165.184 430.434 164.618 433.093 162.591 434.882Z" fill="#19D1AA"/>
<path d="M138.131 420.509C137.561 423.152 138.693 425.63 140.665 426.055C142.638 426.485 144.695 424.681 145.267 422.043C145.831 419.4 144.7 416.923 142.728 416.498C140.759 416.066 138.692 417.856 138.131 420.509Z" fill="#19D1AA"/>
<path d="M147.584 413.853C146.252 416.865 146.994 420.11 149.234 421.099C151.477 422.081 154.377 420.462 155.706 417.458C157.043 414.462 156.3 411.216 154.051 410.213C151.811 409.224 148.917 410.865 147.584 413.853Z" fill="#19D1AA"/>
<path d="M139.938 390.957C139.938 390.957 139.807 389.187 138.395 387.177C136.987 385.166 136.569 383.917 136.448 382.121C136.377 381.15 135.504 377.698 131.976 377.242C128.461 376.622 126.672 379.822 126.263 380.694C125.58 382.099 124.816 383.306 122.867 384.809C120.92 386.294 120.274 387.951 120.274 387.951C119.149 391.516 122.245 393.541 124.422 393.682C124.662 393.683 125.264 393.712 125.499 393.641C126.77 393.331 128.25 393.169 129.507 393.342C130.882 393.531 132.019 394.1 133.238 394.827C133.243 394.826 133.243 394.826 133.243 394.826C133.462 394.965 133.684 395.057 133.928 395.109C136.845 395.825 139.932 394.691 139.938 390.957Z" fill="#19D1AA"/>
<path d="M142.572 372.724C141.7 375.898 139.07 377.938 136.71 377.288C134.34 376.624 133.129 373.526 134.012 370.371C134.879 367.198 137.509 365.158 139.869 365.808C142.234 366.456 143.45 369.57 142.572 372.724Z" fill="#19D1AA"/>
<path d="M145.339 383.763C144.118 386.159 141.675 387.383 139.875 386.472C138.08 385.577 137.606 382.878 138.823 380.467C140.038 378.05 142.486 376.841 144.287 377.758C146.082 378.653 146.556 381.352 145.339 383.763Z" fill="#19D1AA"/>
<path d="M117.27 379.539C117.73 382.208 119.709 384.092 121.695 383.731C123.683 383.397 124.923 380.968 124.463 378.299C124.01 375.65 122.032 373.772 120.044 374.105C118.052 374.445 116.818 376.873 117.27 379.539Z" fill="#19D1AA"/>
<path d="M123.574 369.864C123.456 373.136 125.35 375.868 127.803 375.959C130.257 376.033 132.341 373.45 132.45 370.17C132.568 366.881 130.669 364.151 128.221 364.075C125.767 363.984 123.683 366.566 123.574 369.864Z" fill="#19D1AA"/>
<path d="M179.57 370.245C179.57 370.245 179.607 368.482 178.385 366.346C177.162 364.21 176.868 362.935 176.905 361.115C176.928 360.172 176.377 356.634 172.899 355.855C169.465 354.919 167.386 357.95 166.897 358.766C166.083 360.114 165.212 361.234 163.139 362.551C161.062 363.853 160.262 365.436 160.262 365.436C158.824 368.908 161.717 371.206 163.87 371.531C164.112 371.56 164.698 371.628 164.944 371.594L164.95 371.592C166.235 371.409 167.724 371.369 168.966 371.661C170.314 371.967 171.401 372.654 172.544 373.49C172.747 373.633 172.964 373.745 173.205 373.843C176.038 374.813 179.225 373.974 179.57 370.245Z" fill="#19D1AA"/>
<path d="M183.876 352.368C182.714 355.431 179.914 357.214 177.619 356.362C175.322 355.487 174.402 352.295 175.564 349.21C176.724 346.142 179.524 344.359 181.82 345.234C184.117 346.091 185.037 349.283 183.876 352.368Z" fill="#19D1AA"/>
<path d="M185.616 363.588C184.178 365.872 181.633 366.854 179.922 365.784C178.217 364.713 178 361.994 179.431 359.706C180.865 357.429 183.412 356.436 185.116 357.501C186.826 358.57 187.054 361.304 185.616 363.588Z" fill="#19D1AA"/>
<path d="M158.06 356.817C158.269 359.505 160.069 361.551 162.075 361.39C164.082 361.233 165.543 358.931 165.335 356.243C165.127 353.555 163.325 351.486 161.314 351.649C159.307 351.805 157.851 354.124 158.06 356.817Z" fill="#19D1AA"/>
<path d="M165.214 347.735C164.796 350.995 166.437 353.889 168.868 354.192C171.308 354.521 173.613 352.123 174.028 348.852C174.442 345.599 172.805 342.699 170.374 342.395C167.94 342.087 165.628 344.482 165.214 347.735Z" fill="#19D1AA"/>
<path d="M154.418 329.592C154.418 329.592 155.078 327.943 154.689 325.527C154.299 323.105 154.472 321.791 155.152 320.113C155.51 319.223 156.242 315.737 153.271 313.765C150.386 311.681 147.372 313.774 146.623 314.372C145.388 315.345 144.173 316.083 141.772 316.581C139.367 317.064 138.063 318.263 138.063 318.263C135.485 320.983 137.374 324.173 139.276 325.253C139.482 325.35 140.023 325.626 140.26 325.674C141.531 325.952 142.939 326.456 143.999 327.168C145.151 327.938 145.929 328.964 146.694 330.132C146.699 330.13 146.699 330.13 146.699 330.13C146.843 330.36 146.998 330.536 147.192 330.705C149.493 332.612 152.777 332.96 154.418 329.592Z" fill="#19D1AA"/>
<path d="M164.771 314.366C162.598 316.844 159.343 317.515 157.501 315.881C155.666 314.267 155.938 310.96 158.106 308.484C160.284 306.027 163.539 305.35 165.374 306.964C167.222 308.602 166.945 311.911 164.771 314.366Z" fill="#19D1AA"/>
<path d="M162.431 325.496C160.272 327.114 157.539 327.136 156.323 325.529C155.112 323.943 155.865 321.301 158.012 319.681C160.165 318.043 162.896 318.016 164.114 319.628C165.336 321.233 164.577 323.854 162.431 325.496Z" fill="#19D1AA"/>
<path d="M139.055 309.413C138.299 312.005 139.252 314.553 141.189 315.125C143.121 315.682 145.31 314.05 146.067 311.458C146.818 308.868 145.864 306.297 143.928 305.747C141.991 305.174 139.802 306.807 139.055 309.413Z" fill="#19D1AA"/>
<path d="M148.956 303.466C147.423 306.379 147.921 309.647 150.095 310.816C152.258 311.965 155.262 310.537 156.807 307.644C158.345 304.73 157.841 301.441 155.674 300.298C153.51 299.144 150.501 300.573 148.956 303.466Z" fill="#19D1AA"/>
<path d="M203.495 327.004C203.495 327.004 204.484 325.535 204.589 323.072C204.711 320.627 205.145 319.383 206.158 317.883C206.687 317.084 208.118 313.814 205.605 311.281C203.216 308.648 199.837 310.081 198.976 310.502C197.572 311.217 196.23 311.686 193.776 311.687C191.321 311.665 189.801 312.564 189.801 312.564C186.722 314.706 187.925 318.211 189.564 319.65C189.748 319.806 190.213 320.173 190.432 320.272C190.437 320.271 190.437 320.271 190.443 320.292C191.63 320.817 192.899 321.58 193.792 322.492C194.763 323.494 195.315 324.64 195.83 325.967C195.919 326.186 196.041 326.417 196.192 326.617C198.059 328.957 201.2 329.965 203.495 327.004Z" fill="#19D1AA"/>
<path d="M216.752 314.244C214.119 316.217 210.794 316.207 209.323 314.249C207.86 312.283 208.798 309.1 211.432 307.127C214.062 305.162 217.388 305.16 218.856 307.124C220.322 309.084 219.381 312.274 216.752 314.244Z" fill="#19D1AA"/>
<path d="M212.178 324.646C209.745 325.811 207.064 325.269 206.196 323.437C205.334 321.626 206.611 319.208 209.05 318.042C211.493 316.892 214.168 317.435 215.03 319.246C215.891 321.074 214.619 323.491 212.178 324.646Z" fill="#19D1AA"/>
<path d="M192.588 304.119C191.318 306.506 191.73 309.207 193.511 310.152C195.289 311.103 197.755 309.918 199.031 307.551C200.296 305.165 199.884 302.465 198.106 301.513C196.332 300.572 193.857 301.731 192.588 304.119Z" fill="#19D1AA"/>
<path d="M203.492 300.3C201.393 302.83 201.215 306.149 203.101 307.724C204.995 309.303 208.219 308.51 210.323 305.996C212.422 303.46 212.599 300.142 210.719 298.587C208.833 297.012 205.597 297.786 203.492 300.3Z" fill="#19D1AA"/>
<path d="M246.32 294.575C246.32 294.575 247.814 293.627 248.895 291.41C249.99 289.218 250.893 288.26 252.419 287.285C253.227 286.767 255.848 284.358 254.569 281.036C253.437 277.651 249.764 277.604 248.815 277.657C247.237 277.723 245.823 277.632 243.581 276.637C241.338 275.638 239.578 275.857 239.578 275.857C235.903 276.575 235.589 280.254 236.517 282.228C236.618 282.448 236.901 282.985 237.063 283.164C237.94 284.137 238.792 285.352 239.245 286.545C239.741 287.845 239.772 289.119 239.719 290.545C239.708 290.794 239.726 291.04 239.788 291.266C240.562 294.182 243.024 296.36 246.32 294.575Z" fill="#19D1AA"/>
<path d="M263.579 288.183C260.384 288.944 257.334 287.595 256.782 285.205C256.23 282.833 258.375 280.283 261.57 279.545C264.774 278.798 267.815 280.132 268.374 282.526C268.932 284.92 266.781 287.448 263.579 288.183Z" fill="#19D1AA"/>
<path d="M255.217 295.896C252.521 295.964 250.283 294.397 250.225 292.395C250.166 290.369 252.307 288.671 255.006 288.597C257.706 288.522 259.934 290.074 259.998 292.098C260.061 294.116 257.915 295.816 255.217 295.896Z" fill="#19D1AA"/>
<path d="M245.533 269.226C243.411 270.89 242.703 273.53 243.956 275.125C245.196 276.697 247.931 276.623 250.053 274.959C252.17 273.28 252.878 270.64 251.631 269.065C250.385 267.473 247.652 267.552 245.533 269.226Z" fill="#19D1AA"/>
<path d="M257.049 270.126C254.108 271.592 252.606 274.552 253.704 276.748C254.803 278.944 258.068 279.531 261.019 278.079C263.955 276.615 265.45 273.634 264.352 271.438C263.254 269.242 259.988 268.654 257.049 270.126Z" fill="#19D1AA"/>
<path d="M315.565 274.094C315.565 274.094 317.053 273.147 318.146 270.95C319.23 268.739 320.133 267.781 321.662 266.799C322.471 266.286 325.098 263.876 323.82 260.558C322.681 257.17 319.008 257.123 318.056 257.182C316.483 257.247 315.064 257.158 312.821 256.158C310.583 255.157 308.828 255.374 308.828 255.374C305.144 256.101 304.834 259.773 305.758 261.753C305.869 261.988 306.142 262.511 306.308 262.683C307.186 263.662 308.039 264.876 308.489 266.064C308.98 267.365 309.017 268.638 308.963 270.064C308.949 270.32 308.97 270.559 309.034 270.808C309.803 273.708 312.269 275.879 315.565 274.094Z" fill="#19D1AA"/>
<path d="M332.832 267.746C329.636 268.484 326.581 267.137 326.034 264.745C325.482 262.373 327.627 259.823 330.822 259.085C334.028 258.343 337.067 259.672 337.626 262.066C338.179 264.461 336.031 266.983 332.832 267.746Z" fill="#19D1AA"/>
<path d="M324.461 275.409C321.761 275.484 319.529 273.916 319.476 271.912C319.413 269.893 321.548 268.197 324.252 268.116C326.952 268.041 329.191 269.612 329.238 271.618C329.301 273.637 327.162 275.34 324.461 275.409Z" fill="#19D1AA"/>
<path d="M314.785 248.749C312.657 250.414 311.949 253.054 313.201 254.644C314.448 256.219 317.175 256.159 319.292 254.48C321.417 252.804 322.124 250.181 320.878 248.589C319.625 246.994 316.899 247.076 314.785 248.749Z" fill="#19D1AA"/>
<path d="M326.295 249.667C323.354 251.133 321.862 254.09 322.95 256.289C324.048 258.486 327.319 259.071 330.265 257.621C333.206 256.155 334.696 253.175 333.603 250.978C332.505 248.782 329.234 248.196 326.295 249.667Z" fill="#19D1AA"/>
<path d="M334.349 231.181C334.349 231.181 335.628 229.955 336.295 227.596C336.951 225.217 337.647 224.105 338.969 222.872C339.674 222.219 341.793 219.358 339.911 216.326C338.159 213.214 334.55 213.867 333.617 214.086C332.093 214.462 330.68 214.638 328.287 214.067C325.903 213.509 324.22 214.058 324.22 214.058C320.732 215.45 321.123 219.122 322.401 220.893C322.553 221.092 322.913 221.548 323.113 221.699C324.159 222.495 325.231 223.529 325.894 224.607C326.611 225.789 326.888 227.046 327.101 228.448C327.14 228.688 327.21 228.941 327.316 229.16C328.615 231.866 331.444 233.538 334.349 231.181Z" fill="#19D1AA"/>
<path d="M350.108 221.676C347.103 223.008 343.866 222.269 342.873 220.024C341.877 217.768 343.508 214.878 346.512 213.547C349.513 212.222 352.754 212.954 353.749 215.204C354.742 217.449 353.114 220.35 350.108 221.676Z" fill="#19D1AA"/>
<path d="M343.331 230.798C340.7 231.383 338.21 230.264 337.772 228.291C337.335 226.317 339.119 224.253 341.756 223.667C344.397 223.096 346.877 224.201 347.32 226.173C347.752 228.148 345.966 230.207 343.331 230.798Z" fill="#19D1AA"/>
<path d="M328.821 206.439C327.047 208.46 326.85 211.185 328.375 212.51C329.893 213.832 332.562 213.258 334.329 211.211C336.102 209.185 336.304 206.459 334.784 205.132C333.255 203.814 330.588 204.393 328.821 206.439Z" fill="#19D1AA"/>
<path d="M340.301 205.141C337.69 207.152 336.778 210.345 338.267 212.303C339.754 214.239 343.077 214.204 345.688 212.215C348.307 210.23 349.209 207.024 347.725 205.081C346.235 203.118 342.916 203.163 340.301 205.141Z" fill="#19D1AA"/>
<path d="M386.602 231.205C386.602 231.205 387.585 229.738 387.706 227.287C387.824 224.831 388.262 223.597 389.265 222.084C389.809 221.297 391.241 218.033 388.734 215.498C386.333 212.846 382.961 214.283 382.097 214.71C380.693 215.408 379.35 215.894 376.894 215.867C374.445 215.866 372.923 216.76 372.923 216.76C369.839 218.903 371.037 222.393 372.677 223.832C372.867 224.008 373.324 224.367 373.554 224.486C374.737 225.001 376.013 225.785 376.905 226.696C377.87 227.677 378.423 228.846 378.942 230.167C379.026 230.387 379.151 230.629 379.301 230.806C381.171 233.157 384.302 234.167 386.602 231.205Z" fill="#19D1AA"/>
<path d="M399.863 218.438C397.225 220.395 393.906 220.406 392.441 218.43C390.972 216.46 391.916 213.28 394.546 211.315C397.188 209.351 400.508 209.345 401.974 211.322C403.443 213.292 402.498 216.471 399.863 218.438Z" fill="#19D1AA"/>
<path d="M395.278 228.832C392.843 230.008 390.163 229.449 389.299 227.633C388.443 225.82 389.718 223.396 392.16 222.241C394.601 221.086 397.277 221.629 398.135 223.447C399.003 225.279 397.721 227.682 395.278 228.832Z" fill="#19D1AA"/>
<path d="M375.711 208.297C374.442 210.685 374.847 213.382 376.629 214.332C378.405 215.296 380.883 214.13 382.151 211.737C383.425 209.365 383.011 206.654 381.234 205.708C379.458 204.761 376.986 205.926 375.711 208.297Z" fill="#19D1AA"/>
<path d="M386.624 204.51C384.521 207.047 384.342 210.36 386.225 211.925C388.113 213.506 391.345 212.739 393.453 210.218C395.552 207.682 395.731 204.369 393.848 202.787C391.966 201.228 388.734 201.994 386.624 204.51Z" fill="#19D1AA"/>
<path d="M385.955 189.845C385.955 189.845 386.936 188.39 387.059 185.927C387.171 183.467 387.609 182.239 388.621 180.734C389.157 179.939 390.584 176.659 388.082 174.123C385.689 171.496 382.309 172.924 381.45 173.349C380.041 174.05 378.705 174.539 376.252 174.523C373.798 174.506 372.278 175.405 372.278 175.405C369.192 177.543 370.387 181.04 372.033 182.482C372.212 182.639 372.677 183.024 372.907 183.125C374.093 183.651 375.366 184.425 376.258 185.336C377.228 186.333 377.772 187.492 378.286 188.792C378.292 188.813 378.292 188.813 378.292 188.813C378.377 189.039 378.499 189.253 378.659 189.461C380.522 191.808 383.652 192.796 385.955 189.845Z" fill="#19D1AA"/>
<path d="M399.208 177.075C396.58 179.046 393.257 179.041 391.791 177.081C390.318 175.101 391.271 171.931 393.896 169.949C396.535 167.992 399.858 167.997 401.326 169.962C402.792 171.921 401.847 175.118 399.208 177.075Z" fill="#19D1AA"/>
<path d="M394.636 187.487C392.196 188.647 389.512 188.095 388.653 186.278C387.794 184.454 389.076 182.052 391.51 180.893C393.95 179.732 396.63 180.269 397.493 182.085C398.359 183.929 397.072 186.333 394.636 187.487Z" fill="#19D1AA"/>
<path d="M375.062 166.927C373.789 169.304 374.202 172.009 375.977 172.951C377.757 173.913 380.225 172.75 381.503 170.371C382.771 167.979 382.362 165.289 380.582 164.326C378.807 163.385 376.331 164.539 375.062 166.927Z" fill="#19D1AA"/>
<path d="M385.975 163.14C383.87 165.654 383.692 168.99 385.575 170.555C387.459 172.119 390.691 171.353 392.801 168.837C394.902 166.312 395.083 162.987 393.198 161.417C391.315 159.852 388.083 160.618 385.975 163.14Z" fill="#19D1AA"/>
<path d="M436.666 183.772C436.666 183.772 437.379 182.147 437.068 179.724C436.751 177.297 436.955 175.991 437.692 174.335C438.073 173.444 438.918 169.992 436 167.93C433.185 165.757 430.103 167.756 429.335 168.331C428.078 169.271 426.839 169.965 424.418 170.378C421.999 170.796 420.662 171.96 420.662 171.96C418.007 174.618 419.797 177.837 421.672 178.977C421.879 179.097 422.395 179.386 422.633 179.439C423.902 179.746 425.295 180.295 426.325 181.039C427.455 181.85 428.197 182.887 428.934 184.097C428.934 184.097 428.934 184.097 428.939 184.095C429.066 184.308 429.23 184.509 429.409 184.666C431.66 186.656 434.921 187.097 436.666 183.772Z" fill="#19D1AA"/>
<path d="M447.48 168.88C445.227 171.263 441.96 171.857 440.165 170.169C438.381 168.499 438.749 165.186 441.002 162.804C443.241 160.397 446.515 159.806 448.305 161.496C450.094 163.164 449.725 166.472 447.48 168.88Z" fill="#19D1AA"/>
<path d="M444.799 179.919C442.602 181.486 439.863 181.413 438.694 179.774C437.53 178.135 438.365 175.536 440.562 173.97C442.763 172.396 445.492 172.455 446.667 174.115C447.831 175.754 446.997 178.353 444.799 179.919Z" fill="#19D1AA"/>
<path d="M421.923 163.131C421.079 165.681 421.964 168.284 423.88 168.903C425.793 169.528 428.027 167.951 428.858 165.376C429.688 162.802 428.815 160.218 426.899 159.599C424.977 158.982 422.754 160.557 421.923 163.131Z" fill="#19D1AA"/>
<path d="M431.999 157.492C430.369 160.348 430.778 163.643 432.907 164.854C435.044 166.085 438.085 164.743 439.721 161.908C441.351 159.052 440.936 155.736 438.806 154.525C436.676 153.314 433.627 154.631 431.999 157.492Z" fill="#19D1AA"/>
<path d="M202.874 282.183C202.874 282.183 204.046 280.87 204.487 278.442C204.923 276.033 205.519 274.854 206.722 273.508C207.356 272.774 209.209 269.731 207.055 266.895C205.032 263.963 201.49 264.932 200.585 265.24C199.103 265.757 197.709 266.053 195.28 265.703C192.852 265.376 191.22 266.075 191.22 266.075C187.882 267.776 188.612 271.413 190.042 273.047C190.205 273.226 190.616 273.661 190.826 273.791C191.936 274.477 193.1 275.421 193.86 276.441C194.689 277.542 195.075 278.761 195.413 280.143C195.477 280.392 195.563 280.617 195.69 280.83C197.235 283.41 200.209 284.827 202.874 282.183Z" fill="#19D1AA"/>
<path d="M217.7 271.271C214.83 272.876 211.534 272.435 210.338 270.291C209.148 268.151 210.507 265.115 213.374 263.517C216.246 261.917 219.541 262.359 220.733 264.504C221.933 266.641 220.574 269.677 217.7 271.271Z" fill="#19D1AA"/>
<path d="M211.787 280.971C209.217 281.794 206.637 280.908 206.025 278.998C205.406 277.063 206.987 274.838 209.563 274.013C212.136 273.2 214.714 274.081 215.334 276.017C215.946 277.926 214.359 280.153 211.787 280.971Z" fill="#19D1AA"/>
<path d="M195.097 258.037C193.521 260.226 193.57 262.951 195.21 264.127C196.844 265.305 199.453 264.475 201.026 262.281C202.602 260.093 202.553 257.368 200.913 256.192C199.279 255.014 196.675 255.841 195.097 258.037Z" fill="#19D1AA"/>
<path d="M206.412 255.709C204 257.94 203.385 261.209 205.047 263.023C206.709 264.82 210.012 264.494 212.428 262.257C214.85 260.034 215.468 256.777 213.804 254.957C212.149 253.164 208.835 253.493 206.412 255.709Z" fill="#19D1AA"/>
<path d="M269 255.483C269 255.483 270.593 254.71 271.932 252.65C273.269 250.596 274.278 249.743 275.907 248.959C276.766 248.534 279.655 246.444 278.77 242.99C278.041 239.507 274.401 239.039 273.44 238.975C271.877 238.866 270.473 238.6 268.36 237.35C266.255 236.092 264.484 236.103 264.484 236.103C260.743 236.396 260.014 240.024 260.704 242.098C260.779 242.326 260.988 242.868 261.131 243.076C261.888 244.143 262.599 245.457 262.907 246.682C263.245 248.024 263.131 249.308 262.905 250.695C262.912 250.716 262.912 250.716 262.912 250.716C262.87 250.957 262.867 251.209 262.895 251.452C263.325 254.421 265.517 256.874 269 255.483Z" fill="#19D1AA"/>
<path d="M286.893 251.161C283.623 251.522 280.755 249.85 280.484 247.409C280.208 244.97 282.636 242.694 285.901 242.334C289.163 241.97 292.032 243.641 292.308 246.081C292.578 248.522 290.155 250.796 286.893 251.161Z" fill="#19D1AA"/>
<path d="M277.685 257.816C274.991 257.569 272.95 255.749 273.131 253.743C273.299 251.734 275.629 250.305 278.317 250.53C281.006 250.778 283.045 252.593 282.871 254.603C282.697 256.613 280.373 258.041 277.685 257.816Z" fill="#19D1AA"/>
<path d="M271.164 230.189C268.855 231.596 267.849 234.137 268.904 235.85C269.965 237.584 272.682 237.829 274.985 236.425C277.282 234.999 278.296 232.466 277.237 230.738C276.182 229.025 273.465 228.78 271.164 230.189Z" fill="#19D1AA"/>
<path d="M282.496 232.44C279.4 233.548 277.577 236.331 278.41 238.631C279.236 240.926 282.421 241.909 285.506 240.787C288.608 239.683 290.43 236.895 289.604 234.599C288.765 232.279 285.586 231.317 282.496 232.44Z" fill="#19D1AA"/>
<path d="M429.385 142.062C429.385 142.062 430.377 140.586 430.533 138.159C430.676 135.707 431.122 134.465 432.146 132.962C432.696 132.179 434.16 128.923 431.68 126.368C429.315 123.7 425.916 125.087 425.061 125.523C423.645 126.202 422.303 126.671 419.847 126.627C417.391 126.582 415.862 127.473 415.862 127.473C412.756 129.582 413.92 133.089 415.539 134.534C415.725 134.717 416.18 135.087 416.403 135.185C416.409 135.184 416.409 135.184 416.409 135.184C417.589 135.728 418.853 136.51 419.733 137.437C420.695 138.447 421.228 139.604 421.73 140.925C421.817 141.156 421.94 141.392 422.095 141.585C423.932 143.94 427.05 144.983 429.385 142.062Z" fill="#19D1AA"/>
<path d="M442.781 129.442C440.128 131.369 436.8 131.332 435.354 129.343C433.907 127.373 434.888 124.182 437.545 122.248C440.197 120.316 443.519 120.355 444.97 122.342C446.412 124.314 445.437 127.486 442.781 129.442Z" fill="#19D1AA"/>
<path d="M438.086 139.772C435.635 140.896 432.957 140.325 432.125 138.499C431.281 136.671 432.579 134.264 435.035 133.138C437.486 132.014 440.157 132.582 441.001 134.41C441.845 136.237 440.542 138.646 438.086 139.772Z" fill="#19D1AA"/>
<path d="M418.733 119.024C417.438 121.402 417.822 124.106 419.585 125.067C421.354 126.045 423.841 124.91 425.136 122.532C426.438 120.175 426.054 117.471 424.284 116.489C422.517 115.534 420.035 116.667 418.733 119.024Z" fill="#19D1AA"/>
<path d="M429.691 115.361C427.565 117.859 427.347 121.178 429.214 122.765C431.079 124.364 434.316 123.613 436.458 121.127C438.584 118.629 438.799 115.3 436.928 113.702C435.061 112.115 431.828 112.86 429.691 115.361Z" fill="#19D1AA"/>
<path d="M480.636 132.892C480.636 132.892 481.088 131.179 480.401 128.813C479.715 126.47 479.722 125.155 480.189 123.398C480.438 122.467 480.733 118.913 477.537 117.329C474.417 115.619 471.686 118.06 471.017 118.754C469.916 119.869 468.8 120.765 466.474 121.549C464.149 122.315 463 123.667 463 123.667C460.783 126.695 463.055 129.621 465.066 130.439C465.296 130.541 465.855 130.726 466.099 130.76L466.104 130.759C467.402 130.88 468.859 131.204 469.99 131.775C471.229 132.399 472.13 133.319 473.039 134.38C473.209 134.585 473.389 134.747 473.6 134.895C476.12 136.49 479.419 136.433 480.636 132.892Z" fill="#19D1AA"/>
<path d="M489.03 116.512C487.174 119.225 484.03 120.302 482.002 118.918C479.972 117.528 479.835 114.208 481.687 111.502C483.543 108.788 486.686 107.706 488.716 109.096C490.74 110.486 490.883 113.805 489.03 116.512Z" fill="#19D1AA"/>
<path d="M488.069 127.823C486.143 129.719 483.435 130.07 482.031 128.634C480.618 127.19 481.046 124.492 482.977 122.595C484.91 120.72 487.621 120.362 489.028 121.803C490.434 123.244 490.011 125.94 488.069 127.823Z" fill="#19D1AA"/>
<path d="M462.883 114.748C462.458 117.417 463.724 119.847 465.713 120.159C467.704 120.476 469.665 118.581 470.097 115.916C470.522 113.248 469.264 110.843 467.269 110.511C465.283 110.192 463.317 112.089 462.883 114.748Z" fill="#19D1AA"/>
<path d="M471.98 107.635C470.807 110.701 471.724 113.9 474.012 114.766C476.306 115.653 479.109 113.863 480.282 110.797C481.455 107.731 480.544 104.531 478.251 103.649C475.963 102.783 473.153 104.57 471.98 107.635Z" fill="#19D1AA"/>
<path d="M468.035 90.822C468.035 90.822 468.191 89.0739 467.111 86.861C466.035 84.6637 465.815 83.3493 465.98 81.5583C466.069 80.6068 465.749 77.0395 462.338 76.0281C458.969 74.8728 456.696 77.7523 456.148 78.5458C455.257 79.8256 454.306 80.8895 452.148 82.0562C449.991 83.228 449.093 84.7496 449.093 84.7496C447.419 88.1212 450.153 90.6103 452.281 91.0621C452.516 91.1223 453.106 91.2235 453.355 91.2166C454.651 91.1042 456.137 91.1683 457.361 91.5343C458.685 91.9498 459.719 92.6873 460.815 93.6115C461.005 93.7706 461.215 93.8957 461.441 94.004C464.202 95.1493 467.446 94.5332 468.035 90.822Z" fill="#19D1AA"/>
<path d="M473.516 73.2629C472.152 76.2439 469.233 77.8404 467.004 76.8309C464.769 75.8006 464.063 72.5612 465.432 69.5786C466.797 66.5803 469.71 64.9855 471.939 65.9949C474.178 67.0184 474.875 70.2662 473.516 73.2629Z" fill="#19D1AA"/>
<path d="M474.51 84.588C472.919 86.7643 470.316 87.5918 468.687 86.4126C467.05 85.2296 467.009 82.491 468.593 80.3111C470.177 78.1139 472.78 77.3036 474.416 78.4866C476.047 79.6711 476.093 82.4081 474.51 84.588Z" fill="#19D1AA"/>
<path d="M447.455 75.9763C447.488 78.6888 449.148 80.8575 451.167 80.8345C453.178 80.8026 454.787 78.5923 454.76 75.9008C454.724 73.1951 453.067 71.0196 451.054 71.0462C449.037 71.0745 447.428 73.2848 447.455 75.9763Z" fill="#19D1AA"/>
<path d="M455.208 67.4209C454.575 70.6315 456.015 73.6374 458.428 74.1231C460.828 74.5843 463.294 72.3427 463.925 69.1269C464.56 65.9042 463.116 62.9051 460.705 62.4246C458.3 61.9651 455.837 64.1998 455.208 67.4209Z" fill="#19D1AA"/>
<path d="M513.758 71.43C513.758 71.43 513.578 69.6639 512.104 67.6957C510.629 65.7275 510.179 64.5052 510 62.7046C509.903 61.741 508.927 58.3091 505.38 57.961C501.853 57.4528 500.159 60.6993 499.773 61.5751C499.136 63.0176 498.407 64.2484 496.506 65.7938C494.607 67.3445 494.009 69.0093 494.009 69.0093C492.994 72.6153 496.149 74.5545 498.335 74.6295C498.576 74.6362 499.173 74.627 499.408 74.5558C500.666 74.2039 502.142 73.9911 503.411 74.1268C504.784 74.2707 505.944 74.8216 507.184 75.5078C507.405 75.635 507.63 75.7156 507.875 75.7726C510.808 76.3921 513.868 75.1695 513.758 71.43Z" fill="#19D1AA"/>
<path d="M515.837 53.1192C515.06 56.3223 512.502 58.4317 510.107 57.8376C507.725 57.2629 506.427 54.2195 507.206 51.0216C507.979 47.8201 510.542 45.7091 512.926 46.2891C515.309 46.8639 516.618 49.9266 515.837 53.1192Z" fill="#19D1AA"/>
<path d="M518.934 64.071C517.787 66.5068 515.388 67.8205 513.56 66.9467C511.734 66.1007 511.18 63.4203 512.322 60.9688C513.472 58.5262 515.879 57.2386 517.7 58.0863C519.533 58.9585 520.087 61.6389 518.934 64.071Z" fill="#19D1AA"/>
<path d="M490.757 60.6956C491.29 63.3426 493.33 65.1624 495.308 64.758C497.283 64.3605 498.446 61.8854 497.913 59.2385C497.377 56.5983 495.335 54.7732 493.362 55.176C491.384 55.5804 490.22 58.0502 490.757 60.6956Z" fill="#19D1AA"/>
<path d="M496.754 50.8224C496.747 54.1179 498.723 56.7845 501.177 56.8013C503.624 56.7972 505.634 54.1574 505.641 50.862C505.655 47.5874 503.683 44.9192 501.23 44.9024C498.771 44.8872 496.773 47.5463 496.754 50.8224Z" fill="#19D1AA"/>
<path d="M483.407 37.4236C483.407 37.4236 483.712 35.6763 482.822 33.3944C481.935 31.1056 481.83 29.7789 482.138 28.0023C482.304 27.0616 482.283 23.4836 478.972 22.1968C475.706 20.7591 473.199 23.4351 472.593 24.1665C471.593 25.388 470.568 26.3772 468.314 27.3615C466.066 28.3441 465.043 29.7724 465.043 29.7724C463.092 32.9824 465.608 35.6969 467.695 36.3498C467.925 36.4115 468.503 36.5677 468.75 36.5729C468.755 36.5713 468.755 36.5713 468.755 36.5713C470.053 36.5782 471.53 36.7647 472.711 37.235C474 37.7411 474.974 38.5824 475.974 39.5695C475.981 39.5904 475.981 39.5904 475.981 39.5904C476.161 39.7528 476.357 39.9103 476.577 40.015C479.233 41.3975 482.515 41.0608 483.407 37.4236Z" fill="#19D1AA"/>
<path d="M490.338 20.3562C488.73 23.2284 485.692 24.5812 483.55 23.3686C481.416 22.1821 480.986 18.8761 482.589 16.0055C484.198 13.1558 487.242 11.8013 489.37 12.9894C491.518 14.2005 491.952 17.5049 490.338 20.3562Z" fill="#19D1AA"/>
<path d="M490.384 31.729C488.619 33.7639 485.95 34.3546 484.431 33.0505C482.895 31.7286 483.089 29.0104 484.84 26.951C486.605 24.9161 489.274 24.3255 490.798 25.628C492.329 26.9514 492.14 29.668 490.384 31.729Z" fill="#19D1AA"/>
<path d="M464.146 20.9005C463.954 23.5842 465.424 25.8962 467.428 26.0318C469.444 26.1867 471.232 24.1162 471.43 21.4309C471.621 18.7247 470.151 16.43 468.14 16.2735C466.129 16.1343 464.344 18.2152 464.146 20.9005Z" fill="#19D1AA"/>
<mask id="mask0_2032_3" style="mask-type:luminance" maskUnits="userSpaceOnUse" x="469" y="6" width="15" height="16">
<path d="M480.314 6.54041L483.953 18.5668L473.244 21.8066L469.606 9.78017L480.314 6.54041Z" fill="white"/>
</mask>
<g mask="url(#mask0_2032_3)">
<path d="M472.585 13.0054C471.688 16.1706 472.873 19.2765 475.225 19.9402C477.596 20.627 480.231 18.6027 481.135 15.4412C482.026 12.2724 480.843 9.17168 478.483 8.50425C476.124 7.83683 473.479 9.84704 472.585 13.0054Z" fill="#19D1AA"/>
</g>
</svg>
