<svg width="595" height="595" viewBox="0 0 595 595" fill="none" xmlns="http://www.w3.org/2000/svg">
<g clip-path="url(#clip0_108_201)">
<path d="M30.5311 420.561C30.5311 420.561 31.8213 419.358 32.4972 416.988C33.1707 414.635 33.8797 413.518 35.2046 412.303C35.907 411.649 38.0497 408.798 36.1917 405.745C34.4637 402.634 30.8518 403.252 29.9134 403.479C28.3874 403.837 26.9732 403.996 24.5889 403.423C22.2062 402.839 20.5114 403.371 20.5114 403.371C17.0204 404.751 17.3896 408.437 18.656 410.205C18.7992 410.397 19.1657 410.876 19.36 411.02C20.3995 411.806 21.4614 412.855 22.1192 413.95C22.8354 415.136 23.1057 416.39 23.3046 417.793C23.3394 418.047 23.4029 418.293 23.516 418.503C24.7892 421.211 27.6156 422.919 30.5311 420.561Z" fill="#19D1AA"/>
<path d="M46.3549 411.165C43.3415 412.488 40.1079 411.719 39.1263 409.473C38.1447 407.227 39.7969 404.332 42.8094 403.015C45.8258 401.709 49.0602 402.472 50.0418 404.718C51.0173 406.969 49.3705 409.865 46.3549 411.165Z" fill="#19D1AA"/>
<path d="M39.5197 420.24C36.8799 420.817 34.3943 419.688 33.9714 417.7C33.5453 415.733 35.3452 413.682 37.9912 413.101C40.6287 412.541 43.1081 413.674 43.531 415.662C43.9517 417.628 42.1572 419.68 39.5197 420.24Z" fill="#19D1AA"/>
<path d="M25.1611 395.761C23.3759 397.787 23.1549 400.52 24.6735 401.845C26.1859 403.175 28.862 402.615 30.6426 400.583C32.427 398.562 32.6402 395.844 31.1355 394.499C29.6169 393.174 26.9462 393.735 25.1611 395.761Z" fill="#19D1AA"/>
<path d="M36.6515 394.573C34.0281 396.554 33.0968 399.731 34.5643 401.71C36.0411 403.664 39.3671 403.646 41.9958 401.665C44.6168 399.7 45.5559 396.508 44.0752 394.543C42.6038 392.59 39.2778 392.608 36.6515 394.573Z" fill="#19D1AA"/>
<path d="M79.9146 425.051C79.9146 425.051 81.1193 423.752 81.623 421.352C82.132 418.953 82.7654 417.786 84.0011 416.465C84.6549 415.765 86.594 412.757 84.5185 409.871C82.58 406.879 79.0139 407.751 78.0938 408.042C76.6023 408.504 75.201 408.764 72.7815 408.357C70.3551 407.96 68.7117 408.593 68.7117 408.593C65.3268 410.232 65.9502 413.878 67.3474 415.544C67.4952 415.742 67.8997 416.187 68.1018 416.316L68.1072 416.317C69.1955 417.033 70.3256 417.992 71.0615 419.043C71.8591 420.164 72.2152 421.397 72.5145 422.793C72.5625 423.032 72.6484 423.276 72.7669 423.486C74.242 426.097 77.1717 427.589 79.9146 425.051Z" fill="#19D1AA"/>
<path d="M95.0393 414.553C92.1313 416.063 88.8469 415.53 87.7176 413.35C86.5796 411.192 88.0204 408.194 90.9369 406.664C93.8457 405.15 97.1293 405.688 98.2587 407.867C99.395 410.036 97.9558 413.023 95.0393 414.553Z" fill="#19D1AA"/>
<path d="M88.8674 424.078C86.2672 424.837 83.714 423.87 83.1557 421.939C82.5928 420.002 84.2417 417.813 86.8332 417.075C89.4287 416.31 91.9812 417.283 92.5449 419.214C93.1024 421.15 91.4621 423.318 88.8674 424.078Z" fill="#19D1AA"/>
<path d="M72.8165 400.683C71.1785 402.835 71.1523 405.558 72.7577 406.78C74.3623 408.007 76.9902 407.247 78.6273 405.1C80.2599 402.947 80.2861 400.224 78.6807 399.002C77.0815 397.776 74.4506 398.519 72.8165 400.683Z" fill="#19D1AA"/>
<path d="M84.2 398.668C81.7161 400.829 81.0109 404.083 82.6194 405.929C84.234 407.77 87.5474 407.535 90.0251 405.378C92.5067 403.233 93.2119 399.979 91.6004 398.116C89.992 396.27 86.6754 396.527 84.2 398.668Z" fill="#19D1AA"/>
<path d="M86.9911 374.69C86.9911 374.69 87.6242 373.032 87.1977 370.613C86.7766 368.195 86.9283 366.886 87.5808 365.209C87.9284 364.299 88.6025 360.803 85.6013 358.893C82.6816 356.84 79.704 358.979 78.9631 359.594C77.7492 360.577 76.5443 361.346 74.1426 361.88C71.7486 362.398 70.4606 363.624 70.4606 363.624C67.9296 366.375 69.8731 369.523 71.7849 370.574C72.0017 370.677 72.5349 370.959 72.7781 370.994C74.0599 371.253 75.4694 371.734 76.5338 372.424C77.6993 373.179 78.4871 374.176 79.2822 375.352C79.2876 375.353 79.2876 375.353 79.2876 375.353C79.4268 375.572 79.5886 375.75 79.7876 375.9C82.1244 377.786 85.401 378.069 86.9911 374.69Z" fill="#19D1AA"/>
<path d="M97.1133 359.298C94.977 361.802 91.7295 362.533 89.8685 360.943C88.0046 359.336 88.2224 356.017 90.361 353.535C92.492 351.029 95.7395 350.298 97.6004 351.888C99.4668 353.479 99.2466 356.815 97.1133 359.298Z" fill="#19D1AA"/>
<path d="M94.9364 370.469C92.8137 372.12 90.0817 372.192 88.8388 370.603C87.5936 369.031 88.3096 366.386 90.4345 364.719C92.5603 363.046 95.29 362.991 96.5321 364.585C97.7773 366.157 97.0613 368.802 94.9364 370.469Z" fill="#19D1AA"/>
<path d="M71.3134 354.733C70.5968 357.345 71.59 359.891 73.541 360.407C75.4826 360.949 77.6362 359.275 78.3528 356.663C79.0664 354.073 78.0723 351.532 76.1307 350.99C74.1829 350.453 72.0347 352.128 71.3134 354.733Z" fill="#19D1AA"/>
<path d="M81.1253 348.647C79.6306 351.56 80.1863 354.837 82.369 355.961C84.5595 357.069 87.5423 355.615 89.0331 352.69C90.5355 349.762 89.9745 346.484 87.7894 345.377C85.6066 344.254 82.6238 345.708 81.1253 348.647Z" fill="#19D1AA"/>
<path d="M131.669 372.754C131.669 372.754 132.451 371.173 132.25 368.72C132.049 366.267 132.323 364.988 133.13 363.355C133.55 362.511 134.553 359.074 131.734 356.892C129.022 354.588 125.853 356.451 125.064 356.982C123.755 357.857 122.491 358.501 120.055 358.815C117.622 359.112 116.226 360.206 116.226 360.206C113.45 362.74 115.095 366.048 116.906 367.256C117.114 367.385 117.615 367.695 117.853 367.769L117.858 367.77C119.1 368.149 120.466 368.745 121.466 369.536C122.557 370.385 123.249 371.468 123.93 372.71C124.053 372.927 124.201 373.12 124.378 373.311C126.532 375.391 129.774 375.984 131.669 372.754Z" fill="#19D1AA"/>
<path d="M143.153 358.393C140.801 360.673 137.51 361.1 135.793 359.354C134.085 357.587 134.606 354.307 136.967 352.006C139.32 349.721 142.611 349.294 144.319 351.061C146.035 352.812 145.514 356.092 143.153 358.393Z" fill="#19D1AA"/>
<path d="M139.966 369.291C137.695 370.749 134.974 370.557 133.879 368.863C132.789 367.17 133.746 364.615 136.012 363.151C138.278 361.697 141.006 361.879 142.096 363.567C143.191 365.261 142.238 367.832 139.966 369.291Z" fill="#19D1AA"/>
<path d="M117.889 351.467C116.937 353.989 117.699 356.606 119.584 357.311C121.468 358.021 123.767 356.556 124.719 354.034C125.672 351.511 124.918 348.873 123.028 348.168C121.144 347.458 118.842 348.939 117.889 351.467Z" fill="#19D1AA"/>
<path d="M128.222 346.279C126.46 349.053 126.718 352.37 128.791 353.676C130.86 355.01 133.965 353.816 135.728 351.031C137.484 348.261 137.233 344.94 135.159 343.634C133.087 342.322 129.977 343.509 128.222 346.279Z" fill="#19D1AA"/>
<path d="M126.143 325.269C126.143 325.269 127.44 324.056 128.114 321.703C128.788 319.344 129.502 318.228 130.83 316.997C131.532 316.343 133.674 313.497 131.821 310.45C130.093 307.34 126.475 307.956 125.543 308.179C124.012 308.536 122.598 308.689 120.213 308.122C117.831 307.538 116.141 308.07 116.141 308.07C112.652 309.44 113.009 313.13 114.273 314.914C114.419 315.09 114.791 315.569 114.985 315.714C116.018 316.504 117.08 317.558 117.737 318.653C118.454 319.839 118.723 321.099 118.92 322.48C118.925 322.481 118.925 322.481 118.925 322.481C118.958 322.75 119.024 322.975 119.128 323.211C120.402 325.914 123.228 327.622 126.143 325.269Z" fill="#19D1AA"/>
<path d="M141.979 315.875C138.96 317.197 135.727 316.423 134.753 314.162C133.776 311.922 135.426 309.043 138.439 307.72C141.455 306.42 144.688 307.188 145.665 309.428C146.644 311.696 144.989 314.574 141.979 315.875Z" fill="#19D1AA"/>
<path d="M135.138 324.96C132.497 325.509 130.013 324.369 129.593 322.398C129.17 320.449 130.973 318.376 133.604 317.82C136.248 317.25 138.733 318.384 139.152 320.361C139.578 322.333 137.778 324.384 135.138 324.96Z" fill="#19D1AA"/>
<path d="M120.797 300.478C119.011 302.504 118.794 305.215 120.304 306.556C121.818 307.88 124.492 307.331 126.277 305.305C128.057 303.278 128.283 300.546 126.764 299.226C125.253 297.886 122.579 298.435 120.797 300.478Z" fill="#19D1AA"/>
<path d="M132.284 299.295C129.66 301.282 128.724 304.452 130.197 306.433C131.667 308.391 134.993 308.373 137.62 306.409C140.249 304.423 141.188 301.231 139.711 299.277C138.242 297.313 134.91 297.331 132.284 299.295Z" fill="#19D1AA"/>
<path d="M171.681 343.751C171.681 343.751 173.2 342.84 174.34 340.655C175.488 338.492 176.409 337.549 177.963 336.622C178.781 336.122 181.464 333.769 180.263 330.409C179.217 327.011 175.55 326.875 174.592 326.89C173.017 326.943 171.603 326.798 169.38 325.757C167.166 324.695 165.408 324.864 165.408 324.864C161.712 325.497 161.314 329.182 162.188 331.18C162.288 331.399 162.553 331.929 162.709 332.112C162.714 332.113 162.714 332.113 162.711 332.134C163.563 333.114 164.388 334.343 164.809 335.547C165.263 336.867 165.277 338.138 165.181 339.56C165.169 339.795 165.18 340.056 165.233 340.301C165.93 343.213 168.347 345.458 171.681 343.751Z" fill="#19D1AA"/>
<path d="M189.1 337.822C185.879 338.491 182.872 337.071 182.371 334.674C181.881 332.273 184.081 329.789 187.302 329.12C190.518 328.456 193.531 329.866 194.027 332.268C194.523 334.664 192.317 337.153 189.1 337.822Z" fill="#19D1AA"/>
<path d="M180.544 345.3C177.847 345.322 175.649 343.694 175.64 341.666C175.628 339.661 177.811 338.013 180.514 337.992C183.214 337.987 185.406 339.615 185.418 341.62C185.422 343.641 183.245 345.29 180.544 345.3Z" fill="#19D1AA"/>
<path d="M171.516 318.4C169.353 320.023 168.58 322.643 169.792 324.254C170.998 325.871 173.735 325.844 175.894 324.242C178.051 322.618 178.825 319.998 177.619 318.382C176.411 316.776 173.679 316.776 171.516 318.4Z" fill="#19D1AA"/>
<path d="M183.012 319.569C180.037 320.969 178.468 323.899 179.508 326.126C180.552 328.359 183.808 329.009 186.781 327.625C189.756 326.22 191.325 323.29 190.282 321.085C189.243 318.858 185.984 318.185 183.012 319.569Z" fill="#19D1AA"/>
<path d="M224.219 332.558C224.219 332.558 225.974 332.333 227.894 330.785C229.815 329.265 231.039 328.78 232.835 328.545C233.786 328.418 237.182 327.35 237.433 323.798C237.844 320.253 234.539 318.651 233.657 318.297C232.2 317.688 230.958 317.004 229.35 315.153C227.744 313.296 226.057 312.747 226.057 312.747C222.424 311.838 220.579 315.037 220.582 317.218C220.58 317.46 220.607 318.066 220.679 318.297C221.059 319.55 221.316 321.012 221.219 322.284C221.117 323.671 220.605 324.839 219.951 326.107C219.836 326.328 219.748 326.558 219.708 326.79C219.172 329.759 220.477 332.775 224.219 332.558Z" fill="#19D1AA"/>
<path d="M242.561 334.094C239.346 333.428 237.156 330.912 237.671 328.514C238.177 326.131 241.202 324.732 244.408 325.42C247.627 326.103 249.814 328.602 249.304 331.006C248.794 333.411 245.773 334.787 242.561 334.094Z" fill="#19D1AA"/>
<path d="M231.716 337.529C229.246 336.447 227.884 334.079 228.681 332.241C229.487 330.382 232.146 329.753 234.622 330.831C237.099 331.908 238.457 334.259 237.657 336.119C236.857 337.973 234.193 338.602 231.716 337.529Z" fill="#19D1AA"/>
<path d="M234.265 309.271C231.637 309.877 229.876 311.967 230.333 313.943C230.79 315.892 233.297 316.986 235.925 316.38C238.554 315.757 240.316 313.667 239.855 311.712C239.402 309.742 236.894 308.654 234.265 309.271Z" fill="#19D1AA"/>
<path d="M244.31 314.972C241.025 315.051 238.409 317.094 238.472 319.549C238.534 322.004 241.242 323.921 244.53 323.859C247.81 323.778 250.429 321.713 250.366 319.259C250.304 316.804 247.596 314.887 244.31 314.972Z" fill="#19D1AA"/>
<path d="M295.612 343.395C295.612 343.395 297.361 343.169 299.284 341.644C301.203 340.101 302.427 339.617 304.229 339.377C305.179 339.255 308.58 338.188 308.831 334.642C309.237 331.09 305.932 329.489 305.044 329.139C303.593 328.53 302.345 327.846 300.738 325.99C299.137 324.134 297.455 323.586 297.455 323.586C293.811 322.68 291.972 325.874 291.969 328.059C291.97 328.319 291.994 328.908 292.072 329.134C292.452 330.393 292.708 331.855 292.613 333.121C292.505 334.508 291.998 335.676 291.344 336.945C291.223 337.17 291.141 337.395 291.093 337.648C290.559 340.601 291.87 343.613 295.612 343.395Z" fill="#19D1AA"/>
<path d="M313.942 344.974C310.735 344.287 308.539 341.77 309.059 339.373C309.566 336.99 312.59 335.591 315.797 336.279C319.015 336.968 321.202 339.461 320.693 341.865C320.177 344.269 317.162 345.641 313.942 344.974Z" fill="#19D1AA"/>
<path d="M303.11 348.361C300.633 347.283 299.277 344.916 300.08 343.079C300.88 341.224 303.533 340.595 306.015 341.668C308.492 342.746 309.853 345.119 309.044 346.955C308.245 348.81 305.585 349.444 303.11 348.361Z" fill="#19D1AA"/>
<path d="M305.661 320.114C303.028 320.72 301.266 322.81 301.725 324.781C302.186 326.736 304.681 327.838 307.31 327.216C309.945 326.6 311.699 324.526 311.245 322.555C310.788 320.579 308.284 319.497 305.661 320.114Z" fill="#19D1AA"/>
<path d="M315.694 325.83C312.409 325.91 309.804 327.954 309.856 330.407C309.918 332.862 312.631 334.78 315.914 334.717C319.199 334.637 321.813 332.572 321.756 330.118C321.693 327.663 318.98 325.745 315.694 325.83Z" fill="#19D1AA"/>
<path d="M330.832 312.508C330.832 312.508 332.51 311.941 334.115 310.088C335.719 308.212 336.821 307.5 338.542 306.945C339.457 306.653 342.59 304.961 342.172 301.417C341.906 297.856 338.361 296.915 337.424 296.718C335.884 296.412 334.529 295.972 332.605 294.438C330.683 292.922 328.926 292.706 328.926 292.706C325.177 292.486 323.973 295.976 324.379 298.122C324.432 298.367 324.565 298.933 324.682 299.154C325.29 300.319 325.822 301.71 325.965 302.968C326.113 304.342 325.831 305.598 325.429 306.958C325.362 307.192 325.319 307.45 325.322 307.694C325.349 310.695 327.201 313.41 330.832 312.508Z" fill="#19D1AA"/>
<path d="M349.135 310.589C345.85 310.52 343.232 308.477 343.285 306.023C343.34 303.558 346.044 301.632 349.329 301.702C352.609 301.776 355.233 303.814 355.178 306.273C355.125 308.728 352.42 310.664 349.135 310.589Z" fill="#19D1AA"/>
<path d="M339.127 315.973C336.497 315.386 334.717 313.317 335.158 311.344C335.6 309.371 338.091 308.259 340.727 308.847C343.361 309.451 345.138 311.504 344.702 313.477C344.255 315.449 341.764 316.555 339.127 315.973Z" fill="#19D1AA"/>
<path d="M336.325 287.759C333.861 288.836 332.526 291.22 333.345 293.067C334.159 294.908 336.819 295.521 339.287 294.417C341.752 293.335 343.093 290.952 342.279 289.105C341.454 287.263 338.793 286.655 336.325 287.759Z" fill="#19D1AA"/>
<path d="M347.27 291.454C344.053 292.168 341.872 294.672 342.389 297.076C342.915 299.46 345.938 300.839 349.147 300.146C352.36 299.46 354.537 296.939 354.018 294.55C353.502 292.14 350.477 290.773 347.27 291.454Z" fill="#19D1AA"/>
<path d="M378.137 334.703C378.137 334.703 379.65 333.791 380.799 331.623C381.949 329.45 382.868 328.518 384.419 327.574C385.245 327.092 387.927 324.744 386.732 321.385C385.684 317.964 382.021 317.834 381.057 317.854C379.49 317.891 378.068 317.762 375.855 316.695C373.638 315.655 371.88 315.818 371.88 315.818C368.178 316.45 367.783 320.119 368.657 322.118C368.754 322.358 369.015 322.876 369.173 323.082C370.026 324.05 370.849 325.302 371.27 326.506C371.727 327.803 371.732 329.096 371.642 330.512C371.624 330.747 371.635 331.019 371.696 331.243C372.391 334.165 374.798 336.409 378.137 334.703Z" fill="#19D1AA"/>
<path d="M395.561 328.769C392.342 329.422 389.332 328.023 388.844 325.612C388.35 323.205 390.554 320.726 393.77 320.063C396.995 319.406 400.004 320.809 400.492 323.221C400.987 325.628 398.782 328.106 395.561 328.769Z" fill="#19D1AA"/>
<path d="M387 336.235C384.296 336.267 382.106 334.624 382.095 332.613C382.088 330.608 384.272 328.955 386.973 328.945C389.674 328.934 391.866 330.562 391.872 332.572C391.881 334.599 389.7 336.231 387 336.235Z" fill="#19D1AA"/>
<path d="M377.995 309.338C375.832 310.961 375.055 313.575 376.266 315.192C377.464 316.819 380.203 316.814 382.367 315.186C384.527 313.579 385.302 310.948 384.095 309.337C382.889 307.726 380.155 307.732 377.995 309.338Z" fill="#19D1AA"/>
<path d="M389.484 310.54C386.503 311.945 384.935 314.869 385.976 317.085C387.015 319.317 390.267 319.995 393.246 318.606C396.222 317.201 397.79 314.277 396.756 312.045C395.714 309.835 392.462 309.157 389.484 310.54Z" fill="#19D1AA"/>
<path d="M395.102 296.977C395.102 296.977 396.608 296.075 397.764 293.897C398.909 291.717 399.827 290.791 401.382 289.858C402.204 289.365 404.889 287.001 403.699 283.642C402.647 280.249 398.98 280.107 398.022 280.128C396.449 280.164 395.032 280.041 392.817 278.984C390.602 277.928 388.844 278.097 388.844 278.097C385.143 278.724 384.741 282.397 385.62 284.402C385.715 284.62 385.972 285.165 386.138 285.355C386.989 286.335 387.814 287.575 388.235 288.779C388.689 290.093 388.691 291.374 388.604 292.769C388.601 292.79 388.601 292.79 388.601 292.79C388.582 293.031 388.602 293.276 388.658 293.533C389.349 296.449 391.764 298.672 395.102 296.977Z" fill="#19D1AA"/>
<path d="M412.522 291.037C409.306 291.706 406.298 290.291 405.802 287.895C405.309 285.477 407.518 283.011 410.736 282.33C413.955 281.678 416.962 283.093 417.457 285.494C417.953 287.891 415.741 290.384 412.522 291.037Z" fill="#19D1AA"/>
<path d="M403.963 298.525C401.262 298.541 399.066 296.902 399.06 294.892C399.055 292.876 401.235 291.244 403.932 291.228C406.634 291.213 408.832 292.835 408.843 294.846C408.845 296.884 406.659 298.514 403.963 298.525Z" fill="#19D1AA"/>
<path d="M394.96 271.601C392.799 273.213 392.025 275.839 393.233 277.444C394.437 279.071 397.165 279.065 399.331 277.454C401.495 275.825 402.266 273.216 401.062 271.589C399.855 269.983 397.123 269.978 394.96 271.601Z" fill="#19D1AA"/>
<path d="M406.452 272.803C403.479 274.187 401.903 277.132 402.944 279.348C403.985 281.564 407.237 282.241 410.215 280.858C413.189 279.464 414.764 276.529 413.724 274.308C412.683 272.092 409.43 271.415 406.452 272.803Z" fill="#19D1AA"/>
<path d="M443.597 312.996C443.597 312.996 444.932 311.827 445.679 309.501C446.421 307.169 447.16 306.073 448.531 304.886C449.254 304.241 451.484 301.474 449.716 298.368C448.09 295.206 444.45 295.709 443.511 295.903C441.974 296.221 440.557 296.324 438.19 295.67C435.822 295.022 434.118 295.508 434.118 295.508C430.586 296.789 430.841 300.464 432.054 302.291C432.191 302.488 432.536 302.968 432.729 303.118C433.748 303.934 434.776 305.022 435.393 306.133C436.072 307.347 436.304 308.601 436.458 310.009C436.458 310.009 436.458 310.009 436.463 310.01C436.488 310.256 436.551 310.508 436.646 310.726C437.84 313.483 440.606 315.266 443.597 312.996Z" fill="#19D1AA"/>
<path d="M459.709 304.1C456.658 305.301 453.447 304.453 452.538 302.163C451.631 299.894 453.37 297.05 456.421 295.849C459.47 294.62 462.686 295.474 463.589 297.764C464.501 300.033 462.764 302.872 459.709 304.1Z" fill="#19D1AA"/>
<path d="M452.596 312.958C449.942 313.444 447.493 312.216 447.13 310.236C446.771 308.258 448.63 306.259 451.284 305.773C453.945 305.282 456.391 306.494 456.751 308.495C457.109 310.473 455.251 312.472 452.596 312.958Z" fill="#19D1AA"/>
<path d="M439.006 288.049C437.16 290 436.856 292.733 438.329 294.106C439.795 295.484 442.488 295.004 444.332 293.025C446.177 291.047 446.483 288.337 445.01 286.963C443.531 285.589 440.85 286.071 439.006 288.049Z" fill="#19D1AA"/>
<path d="M450.521 287.218C447.833 289.113 446.805 292.27 448.22 294.27C449.632 296.291 452.955 296.366 455.64 294.493C458.328 292.599 459.359 289.42 457.944 287.42C456.529 285.42 453.21 285.318 450.521 287.218Z" fill="#19D1AA"/>
<path d="M190.138 302.902C190.138 302.902 191.757 302.21 193.186 300.199C194.603 298.202 195.643 297.388 197.303 296.68C198.189 296.284 201.158 294.314 200.411 290.833C199.824 287.319 196.205 286.693 195.254 286.588C193.693 286.427 192.305 286.104 190.254 284.757C188.195 283.431 186.42 283.371 186.42 283.371C182.676 283.495 181.793 287.098 182.395 289.184C182.466 289.415 182.654 289.983 182.79 290.191C183.503 291.283 184.157 292.631 184.412 293.877C184.696 295.227 184.528 296.494 184.248 297.889C184.2 298.141 184.182 298.381 184.207 298.628C184.511 301.62 186.603 304.166 190.138 302.902Z" fill="#19D1AA"/>
<path d="M208.193 299.312C204.912 299.547 202.116 297.749 201.942 295.3C201.773 292.858 204.291 290.685 207.565 290.455C210.845 290.225 213.642 292.023 213.81 294.471C213.99 296.915 211.471 299.088 208.193 299.312Z" fill="#19D1AA"/>
<path d="M198.724 305.586C196.047 305.241 194.087 303.344 194.343 301.355C194.604 299.339 196.98 297.996 199.662 298.342C202.337 298.698 204.298 300.589 204.038 302.605C203.781 304.594 201.4 305.937 198.724 305.586Z" fill="#19D1AA"/>
<path d="M193.342 277.736C190.987 279.05 189.874 281.538 190.86 283.299C191.84 285.059 194.554 285.415 196.91 284.096C199.265 282.783 200.378 280.295 199.392 278.534C198.412 276.774 195.703 276.418 193.342 277.736Z" fill="#19D1AA"/>
<path d="M204.576 280.43C201.444 281.427 199.501 284.125 200.236 286.473C200.978 288.806 204.108 289.913 207.245 288.912C210.381 287.927 212.323 285.239 211.589 282.886C210.85 280.559 207.71 279.451 204.576 280.43Z" fill="#19D1AA"/>
<path d="M261.344 306.784C261.344 306.784 263.114 306.76 265.202 305.463C267.283 304.17 268.559 303.826 270.367 303.807C271.325 303.787 274.828 303.12 275.492 299.618C276.31 296.154 273.213 294.185 272.369 293.72C271.001 292.958 269.842 292.122 268.459 290.093C267.087 288.061 265.478 287.319 265.478 287.319C261.966 285.997 259.767 288.972 259.512 291.143C259.483 291.382 259.442 291.961 259.484 292.21C259.716 293.497 259.802 294.989 259.561 296.229C259.298 297.588 258.65 298.702 257.857 299.862C257.854 299.884 257.854 299.884 257.854 299.884C257.714 300.084 257.604 300.311 257.526 300.543C256.656 303.414 257.6 306.565 261.344 306.784Z" fill="#19D1AA"/>
<path d="M279.381 310.462C276.267 309.402 274.379 306.671 275.17 304.346C275.955 302.02 279.119 300.99 282.228 302.049C285.337 303.103 287.225 305.834 286.44 308.16C285.649 310.485 282.49 311.516 279.381 310.462Z" fill="#19D1AA"/>
<path d="M268.218 312.581C265.883 311.215 264.808 308.701 265.823 306.961C266.828 305.214 269.544 304.908 271.882 306.253C274.212 307.618 275.288 310.126 274.278 311.873C273.267 313.62 270.556 313.926 268.218 312.581Z" fill="#19D1AA"/>
<path d="M274.038 284.799C271.351 285.093 269.361 286.967 269.589 288.966C269.815 290.986 272.171 292.361 274.852 292.066C277.537 291.75 279.53 289.887 279.304 287.873C279.076 285.874 276.72 284.499 274.038 284.799Z" fill="#19D1AA"/>
<path d="M283.343 291.645C280.07 291.335 277.238 293.081 277.016 295.517C276.79 297.946 279.257 300.187 282.527 300.481C285.804 300.797 288.637 299.045 288.863 296.616C289.088 294.159 286.617 291.939 283.343 291.645Z" fill="#19D1AA"/>
<path d="M454.702 272.137C454.702 272.137 456.226 271.222 457.398 269.09C458.568 266.931 459.499 265.995 461.063 265.069C461.894 264.594 464.601 262.266 463.44 258.901C462.43 255.48 458.764 255.295 457.804 255.326C456.235 255.341 454.82 255.196 452.615 254.113C450.41 253.031 448.648 253.188 448.648 253.188C444.94 253.781 444.506 257.449 445.359 259.445C445.45 259.69 445.704 260.218 445.865 260.402C445.871 260.403 445.871 260.403 445.871 260.403C446.709 261.397 447.521 262.641 447.925 263.853C448.367 265.176 448.358 266.45 448.253 267.859C448.234 268.105 448.245 268.372 448.303 268.612C448.967 271.524 451.348 273.791 454.702 272.137Z" fill="#19D1AA"/>
<path d="M472.188 266.394C468.967 267.014 465.97 265.567 465.505 263.153C465.031 260.755 467.273 258.282 470.499 257.658C473.72 257.034 476.712 258.479 477.183 260.894C477.651 263.292 475.422 265.75 472.188 266.394Z" fill="#19D1AA"/>
<path d="M463.554 273.756C460.857 273.734 458.675 272.08 458.696 270.074C458.707 268.061 460.904 266.431 463.606 266.455C466.302 266.477 468.48 268.124 468.469 270.137C468.457 272.151 466.255 273.779 463.554 273.756Z" fill="#19D1AA"/>
<path d="M454.834 246.757C452.652 248.361 451.853 250.971 453.042 252.591C454.228 254.226 456.962 254.254 459.144 252.65C461.323 251.068 462.122 248.457 460.937 246.816C459.742 245.202 457.013 245.175 454.834 246.757Z" fill="#19D1AA"/>
<path d="M466.31 248.09C463.325 249.449 461.72 252.363 462.737 254.592C463.747 256.831 466.997 257.525 469.991 256.182C472.977 254.823 474.584 251.899 473.568 249.659C472.551 247.429 469.307 246.731 466.31 248.09Z" fill="#19D1AA"/>
<path d="M505.002 285.582C505.002 285.582 506.138 284.223 506.52 281.789C506.893 279.376 507.458 278.188 508.626 276.796C509.247 276.058 511.022 272.965 508.8 270.175C506.701 267.302 503.191 268.354 502.291 268.698C500.821 269.24 499.43 269.579 496.992 269.302C494.561 269.009 492.947 269.746 492.947 269.746C489.654 271.547 490.47 275.16 491.944 276.754C492.11 276.944 492.537 277.348 492.744 277.483L492.749 277.484C493.873 278.144 495.054 279.056 495.837 280.053C496.694 281.144 497.119 282.359 497.491 283.705C497.559 283.963 497.653 284.187 497.781 284.41C499.386 286.923 502.397 288.272 505.002 285.582Z" fill="#19D1AA"/>
<path d="M519.555 274.311C516.723 275.981 513.419 275.621 512.17 273.507C510.921 271.388 512.206 268.324 515.032 266.659C517.864 264.99 521.169 265.343 522.417 267.463C523.66 269.581 522.381 272.647 519.555 274.311Z" fill="#19D1AA"/>
<path d="M513.884 284.146C511.336 285.045 508.735 284.214 508.072 282.318C507.406 280.411 508.938 278.15 511.492 277.251C514.038 276.374 516.645 277.2 517.307 279.102C517.968 281.003 516.442 283.265 513.884 284.146Z" fill="#19D1AA"/>
<path d="M496.626 261.619C495.109 263.855 495.224 266.593 496.893 267.719C498.561 268.85 501.14 267.967 502.663 265.737C504.18 263.502 504.061 260.79 502.395 259.643C500.733 258.512 498.148 259.395 496.626 261.619Z" fill="#19D1AA"/>
<path d="M507.882 259.039C505.519 261.317 504.991 264.602 506.696 266.357C508.397 268.134 511.695 267.703 514.058 265.424C516.421 263.146 516.954 259.861 515.252 258.09C513.547 256.335 510.245 256.76 507.882 259.039Z" fill="#19D1AA"/>
<path d="M511.444 242.14C511.444 242.14 512.327 240.623 512.288 238.161C512.246 235.715 512.604 234.431 513.514 232.88C513.999 232.056 515.222 228.69 512.563 226.327C510.003 223.851 506.722 225.494 505.89 225.98C504.54 226.76 503.227 227.32 500.778 227.461C498.327 227.607 496.869 228.604 496.869 228.604C493.922 230.946 495.341 234.36 497.077 235.672C497.264 235.827 497.755 236.169 497.984 236.268C499.205 236.716 500.524 237.405 501.476 238.256C502.499 239.194 503.122 240.3 503.722 241.602C503.827 241.827 503.964 242.029 504.123 242.223C506.137 244.432 509.336 245.25 511.444 242.14Z" fill="#19D1AA"/>
<path d="M523.857 228.566C521.357 230.686 518.037 230.893 516.447 229.034C514.86 227.152 515.595 223.919 518.101 221.8C520.608 219.664 523.923 219.456 525.513 221.315C527.106 223.192 526.359 226.429 523.857 228.566Z" fill="#19D1AA"/>
<path d="M519.952 239.243C517.588 240.538 514.88 240.183 513.905 238.424C512.925 236.658 514.05 234.161 516.409 232.859C518.775 231.542 521.476 231.913 522.456 233.678C523.43 235.443 522.311 237.941 519.952 239.243Z" fill="#19D1AA"/>
<path d="M499.107 219.964C497.986 222.434 498.57 225.103 500.408 225.939C502.242 226.763 504.637 225.444 505.755 222.996C506.87 220.53 506.292 217.857 504.459 217.027C502.62 216.197 500.225 217.516 499.107 219.964Z" fill="#19D1AA"/>
<path d="M509.758 215.507C507.823 218.146 507.852 221.479 509.831 222.943C511.808 224.378 514.993 223.395 516.928 220.751C518.87 218.102 518.836 214.774 516.856 213.316C514.874 211.879 511.695 212.857 509.758 215.507Z" fill="#19D1AA"/>
<path d="M561.074 243.982C561.074 243.982 561.66 242.307 561.16 239.899C560.66 237.491 560.772 236.193 561.373 234.487C561.694 233.573 562.267 230.051 559.203 228.231C556.225 226.274 553.313 228.495 552.592 229.124C551.404 230.16 550.221 230.965 547.844 231.558C545.466 232.156 544.218 233.41 544.218 233.41C541.769 236.244 543.803 239.339 545.75 240.335C545.966 240.443 546.51 240.688 546.754 240.723C548.042 240.938 549.469 241.372 550.56 242.033C551.742 242.746 552.559 243.737 553.391 244.885C553.537 245.094 553.706 245.262 553.904 245.418C556.297 247.223 559.587 247.415 561.074 243.982Z" fill="#19D1AA"/>
<path d="M570.727 228.284C568.664 230.855 565.452 231.679 563.537 230.126C561.623 228.594 561.74 225.288 563.802 222.723C565.86 220.151 569.076 219.327 570.989 220.864C572.903 222.396 572.789 225.725 570.727 228.284Z" fill="#19D1AA"/>
<path d="M568.885 239.515C566.814 241.234 564.084 241.406 562.799 239.839C561.505 238.298 562.141 235.636 564.215 233.9C566.293 232.177 569.019 232.032 570.307 233.572C571.597 235.14 570.962 237.802 568.885 239.515Z" fill="#19D1AA"/>
<path d="M544.802 224.502C544.161 227.125 545.236 229.639 547.199 230.112C549.156 230.59 551.259 228.842 551.9 226.219C552.535 223.601 551.461 221.082 549.503 220.609C547.541 220.136 545.438 221.878 544.802 224.502Z" fill="#19D1AA"/>
<path d="M554.421 218.106C553.016 221.087 553.675 224.341 555.889 225.397C558.107 226.432 561.047 224.894 562.452 221.913C563.854 218.954 563.201 215.701 560.986 214.645C558.766 213.588 555.829 215.148 554.421 218.106Z" fill="#19D1AA"/>
<path d="M548.023 200.311C548.023 200.311 549.04 198.858 549.202 196.414C549.371 193.965 549.839 192.719 550.871 191.241C551.421 190.46 552.92 187.211 550.468 184.641C548.121 181.953 544.716 183.312 543.856 183.717C542.432 184.399 541.084 184.86 538.626 184.795C536.173 184.731 534.641 185.59 534.641 185.59C531.512 187.669 532.639 191.194 534.251 192.671C534.433 192.824 534.89 193.211 535.112 193.321C535.117 193.321 535.117 193.321 535.117 193.321C536.289 193.878 537.548 194.674 538.418 195.601C539.37 196.606 539.895 197.781 540.382 199.1C540.379 199.121 540.379 199.121 540.379 199.121C540.473 199.345 540.584 199.571 540.739 199.759C542.557 202.138 545.672 203.226 548.023 200.311Z" fill="#19D1AA"/>
<path d="M561.541 187.797C558.866 189.716 555.541 189.651 554.116 187.644C552.688 185.665 553.702 182.489 556.371 180.57C559.037 178.672 562.368 178.737 563.791 180.716C565.222 182.724 564.213 185.9 561.541 187.797Z" fill="#19D1AA"/>
<path d="M556.755 198.114C554.294 199.208 551.626 198.61 550.804 196.785C549.975 194.936 551.303 192.557 553.763 191.435C556.224 190.342 558.892 190.939 559.719 192.765C560.544 194.613 559.22 196.993 556.755 198.114Z" fill="#19D1AA"/>
<path d="M537.592 177.176C536.279 179.524 536.629 182.241 538.387 183.215C540.146 184.21 542.644 183.094 543.962 180.747C545.284 178.377 544.926 175.675 543.172 174.681C541.41 173.701 538.911 174.828 537.592 177.176Z" fill="#19D1AA"/>
<mask id="mask0_108_201" style="mask-type:luminance" maskUnits="userSpaceOnUse" x="545" y="169" width="14" height="15">
<path d="M558.326 171.033L556.518 183.467L545.446 181.857L547.255 169.423L558.326 171.033Z" fill="white"/>
</mask>
<g mask="url(#mask0_108_201)">
<path d="M548.584 173.607C546.429 176.093 546.184 179.408 548.032 181.007C549.888 182.635 553.133 181.92 555.293 179.441C557.444 176.95 557.688 173.64 555.835 172.034C553.982 170.429 550.734 171.127 548.584 173.607Z" fill="#19D1AA"/>
</g>
</g>
<defs>
<clipPath id="clip0_108_201">
<rect width="524.441" height="524.441" fill="white" transform="translate(594.766 75.9724) rotate(98.2762)"/>
</clipPath>
</defs>
</svg>
