<svg width="108" height="108" viewBox="0 0 108 108" fill="none" xmlns="http://www.w3.org/2000/svg">
<rect opacity="0.8" x="4" y="4" width="100" height="100" rx="50" fill="#19D1AA"/>
<path d="M43.2338 37.3198C43.0862 37.1299 42.9 36.9736 42.6873 36.8613C42.4747 36.749 42.2406 36.6832 42.0006 36.6683C41.7606 36.6534 41.5202 36.6898 41.2953 36.7749C41.0704 36.8601 40.8663 36.9921 40.6963 37.1623L38.1113 39.7498C36.9038 40.9598 36.4588 42.6723 36.9863 44.1748C39.1782 50.3925 42.7392 56.0383 47.4063 60.6948C52.0628 65.3619 57.7086 68.9229 63.9263 71.1148C65.4288 71.6423 67.1413 71.1973 68.3513 69.9898L70.9363 67.4048C71.1065 67.2348 71.2385 67.0306 71.3237 66.8058C71.4088 66.5809 71.4452 66.3405 71.4303 66.1005C71.4154 65.8605 71.3496 65.6264 71.2373 65.4138C71.125 65.2011 70.9687 65.0148 70.7788 64.8673L65.0113 60.3823C64.8083 60.2253 64.5724 60.1163 64.3213 60.0635C64.0702 60.0106 63.8104 60.0154 63.5613 60.0773L58.0863 61.4448C57.3555 61.6262 56.5902 61.6159 55.8644 61.4148C55.1387 61.2138 54.4772 60.8289 53.9438 60.2973L47.8038 54.1548C47.2718 53.6217 46.8864 52.9602 46.6849 52.2345C46.4834 51.5088 46.4727 50.7433 46.6538 50.0123L48.0238 44.5373C48.0857 44.2882 48.0904 44.0284 48.0376 43.7773C47.9848 43.5262 47.8758 43.2903 47.7188 43.0873L43.2338 37.3198ZM38.8088 35.2773C39.2463 34.8396 39.7719 34.5001 40.3507 34.2812C40.9295 34.0622 41.5482 33.969 42.1658 34.0075C42.7834 34.046 43.3857 34.2155 43.9328 34.5047C44.4799 34.7939 44.9591 35.1961 45.3388 35.6848L49.8238 41.4498C50.6463 42.5073 50.9363 43.8848 50.6113 45.1848L49.2438 50.6598C49.1736 50.9434 49.1777 51.2403 49.2556 51.5218C49.3336 51.8034 49.4828 52.0601 49.6888 52.2673L55.8313 58.4098C56.0387 58.6162 56.2959 58.7657 56.5779 58.8436C56.86 58.9216 57.1574 58.9254 57.4413 58.8548L62.9138 57.4873C63.5554 57.3278 64.2248 57.3158 64.8717 57.4522C65.5187 57.5886 66.1262 57.8698 66.6488 58.2748L72.4138 62.7598C74.4863 64.3723 74.6763 67.4348 72.8213 69.2873L70.2363 71.8723C68.3863 73.7223 65.6213 74.5348 63.0438 73.6273C56.4455 71.3087 50.4552 67.5316 45.5188 62.5773C40.5648 57.6416 36.7877 51.6522 34.4688 45.0548C33.5638 42.4798 34.3763 39.7123 36.2263 37.8623L38.8088 35.2773Z" fill="#594DB3"/>
<rect opacity="0.9" x="1.07031" y="1.06982" width="105.86" height="105.86" rx="52.93" stroke="#594DB3" stroke-width="2"/>
</svg>
