<svg width="73" height="74" viewBox="0 0 73 74" fill="none" xmlns="http://www.w3.org/2000/svg">
<rect opacity="0.8" x="1.75195" y="1.75098" width="70" height="71" rx="35" fill="#19D1AA" stroke="#594DB3" stroke-width="2"/>
<g clip-path="url(#clip0_56_3300)">
<path d="M25.8872 21.0707C25.7396 20.8809 25.5533 20.7246 25.3407 20.6123C25.128 20.5 24.894 20.4342 24.654 20.4193C24.4139 20.4044 24.1735 20.4407 23.9486 20.5259C23.7238 20.6111 23.5196 20.7431 23.3497 20.9132L20.7647 23.5007C19.5572 24.7107 19.1122 26.4232 19.6397 27.9257C21.8315 34.1435 25.3925 39.7893 30.0597 44.4457C34.7161 49.1129 40.3619 52.6739 46.5797 54.8657C48.0822 55.3932 49.7947 54.9482 51.0047 53.7407L53.5897 51.1557C53.7598 50.9858 53.8918 50.7816 53.977 50.5567C54.0622 50.3319 54.0985 50.0914 54.0836 49.8514C54.0687 49.6114 54.0029 49.3774 53.8906 49.1647C53.7783 48.9521 53.622 48.7658 53.4322 48.6182L47.6647 44.1332C47.4617 43.9763 47.2258 43.8673 46.9746 43.8144C46.7235 43.7616 46.4637 43.7663 46.2147 43.8282L40.7397 45.1957C40.0088 45.3771 39.2435 45.3668 38.5178 45.1658C37.792 44.9648 37.1305 44.5798 36.5972 44.0482L30.4572 37.9057C29.9251 37.3726 29.5397 36.7112 29.3382 35.9855C29.1368 35.2598 29.1261 34.4943 29.3072 33.7632L30.6772 28.2882C30.7391 28.0392 30.7438 27.7794 30.6909 27.5283C30.6381 27.2771 30.5291 27.0412 30.3722 26.8382L25.8872 21.0707ZM21.4622 19.0282C21.8996 18.5906 22.4252 18.2511 23.004 18.0321C23.5828 17.8132 24.2015 17.7199 24.8191 17.7585C25.4367 17.797 26.039 17.9665 26.5861 18.2557C27.1332 18.5449 27.6125 18.9471 27.9922 19.4357L32.4772 25.2007C33.2997 26.2582 33.5897 27.6357 33.2647 28.9357L31.8972 34.4107C31.8269 34.6943 31.831 34.9912 31.909 35.2728C31.9869 35.5544 32.1361 35.8111 32.3422 36.0182L38.4847 42.1607C38.692 42.3672 38.9492 42.5167 39.2312 42.5946C39.5133 42.6726 39.8107 42.6764 40.0947 42.6057L45.5672 41.2382C46.2088 41.0788 46.8782 41.0668 47.5251 41.2032C48.172 41.3396 48.7796 41.6208 49.3022 42.0257L55.0672 46.5107C57.1397 48.1232 57.3297 51.1857 55.4747 53.0382L52.8897 55.6232C51.0397 57.4732 48.2747 58.2857 45.6972 57.3782C39.0988 55.0597 33.1085 51.2826 28.1722 46.3282C23.2181 41.3926 19.441 35.4032 17.1222 28.8057C16.2172 26.2307 17.0297 23.4632 18.8797 21.6132L21.4622 19.0282Z" fill="#594DB3"/>
</g>
<defs>
<clipPath id="clip0_56_3300">
<rect width="40" height="40" fill="white" transform="translate(16.752 17.751)"/>
</clipPath>
</defs>
</svg>
