<svg width="140" height="147" viewBox="0 0 140 147" fill="none" xmlns="http://www.w3.org/2000/svg">
<path d="M99.2387 76.6706C97.0755 76.9466 80.259 87.7481 80.9371 92.5114C81.6151 97.2746 97.7444 108.051 100.647 109.096C103.55 110.14 108.635 108.542 108.635 108.542L111.215 101.177L99.2387 76.6706Z" fill="#19D1AA"/>
<path d="M105.589 103.76C106.74 106.495 108.72 110.053 111.201 110.866C113.681 111.679 121.598 109.256 123.622 106.068C125.648 102.881 130.434 100.66 126.74 87.5626C123.045 74.4649 119.87 62.7513 114.735 63.774C109.6 64.7966 96.2112 69.5205 94.1659 68.5815C94.1659 68.5815 95.274 69.2685 99.2768 77.8833C103.28 86.498 108.673 98.6243 109.21 101.996L105.589 103.76Z" fill="#19D1AA"/>
<path d="M127.303 97.2011C127.303 97.2011 134.099 94.9871 132.242 88.2051C130.387 81.4224 121.998 73.7073 121.998 73.7073L127.303 97.2011Z" fill="#19D1AA"/>
<path d="M82.1945 91.5547C82.1945 91.5547 54.8277 73.4205 51.1808 73.0646L39.3538 66.1137L38.7785 56.8323L48.8394 47.1712L60.0643 52.0523L94.1671 68.5814L104.796 75.8806L101.38 84.4339L82.1945 91.5547Z" fill="#19D1AA"/>
<path d="M51.1798 73.0644C51.1798 73.0644 48.1158 77.1454 42.1423 75.695C36.1689 74.2445 31.4768 60.9658 27.1555 56.6722C22.835 52.3795 17.8311 45.3314 17.6465 42.6691C17.4612 40.0058 23.3008 34.7633 27.7535 35.1205C27.7535 35.1205 26.0406 36.2095 27.2509 38.3379C28.4614 40.4647 38.2998 48.7034 40.9277 56.9146C43.5546 65.1265 46.0579 70.7323 51.1798 73.0644Z" fill="#19D1AA"/>
<path d="M41.7468 59.3885C40.9285 56.9149 48.7503 46.9748 56.0458 50.3056C57.1782 50.8221 60.064 52.0525 60.064 52.0525C60.064 52.0525 58.8935 42.354 49.5581 41.5286C40.2238 40.7025 33.2693 51.7041 33.2693 51.7041L41.7468 59.3885Z" fill="#19D1AA"/>
<path d="M48.7356 42.3587C48.7356 42.3587 47.7848 29.7613 38.3736 29.076C28.9607 28.3905 27.7529 35.1208 27.7529 35.1208L24.1621 37.465L31.0763 49.4499L38.1888 51.3641L48.7356 42.3587Z" fill="#19D1AA"/>
<path d="M41.8586 74.7151C41.8586 74.7151 40.6683 76.7144 34.4771 75.3279C28.2859 73.9415 25.3247 73.5044 21.3057 73.4931C17.2867 73.4819 10.3523 69.9505 8.92759 62.2151C7.50264 54.4814 15.7864 44.3924 18.6445 42.8511L32.7164 59.5416L41.8586 74.7151Z" fill="#19D1AA"/>
<path d="M33.6188 60.5048C33.6284 60.5179 33.6369 60.5318 33.6424 60.5479C35.0813 64.7148 37.4262 68.6297 40.4194 71.8677C40.4834 71.9324 40.4766 72.0378 40.4104 72.0998C40.3425 72.1616 40.2393 72.1578 40.1776 72.0898C37.1526 68.8208 34.7856 64.8649 33.3311 60.6552C33.3009 60.569 33.347 60.4752 33.4322 60.4457C33.5031 60.4221 33.5777 60.4482 33.6188 60.5048Z" fill="#594DB3"/>
<path d="M12.6839 56.2308C12.7059 56.2612 12.7179 56.2988 12.714 56.3403C12.5143 58.7736 12.9726 61.2215 14.0378 63.4182C14.0768 63.4996 14.0433 63.5981 13.962 63.6371C13.8797 63.6769 13.7829 63.6437 13.7422 63.5621C12.6505 61.3119 12.1826 58.8061 12.3872 56.3136C12.3943 56.2235 12.473 56.1554 12.5639 56.1635C12.6144 56.167 12.6567 56.1934 12.6839 56.2308Z" fill="#594DB3"/>
<path d="M36.0758 43.2933C36.1199 43.3539 36.1191 43.4379 36.0677 43.4969C36.0084 43.5662 35.9061 43.5742 35.8367 43.5149C33.6388 41.6346 31.6611 39.4939 29.9591 37.1544C29.9062 37.0816 29.9225 36.9786 29.9952 36.9257C30.069 36.872 30.1713 36.8873 30.2249 36.9611C31.9123 39.2805 33.8716 41.4022 36.0507 43.2652C36.0601 43.2738 36.0684 43.2832 36.0758 43.2933Z" fill="#594DB3"/>
<path d="M71.8321 81.9194C71.8695 81.9709 71.8755 82.0408 71.8421 82.099C71.7957 82.1775 71.6951 82.2028 71.6163 82.1581L59.5621 75.1158C59.4836 75.0694 59.4573 74.9695 59.5027 74.8917C59.5492 74.8131 59.65 74.7861 59.7286 74.8325L71.782 81.8739C71.8026 81.8852 71.8188 81.9012 71.8321 81.9194Z" fill="#594DB3"/>
<path d="M104.802 84.195C104.809 84.2041 104.815 84.2149 104.821 84.2265C107.487 90.4102 109.633 96.8658 111.196 103.413C111.217 103.502 111.162 103.591 111.074 103.612C110.986 103.633 110.898 103.577 110.876 103.49C109.317 96.9598 107.179 90.5233 104.518 84.3567C104.483 84.2724 104.522 84.1765 104.605 84.1405C104.676 84.1089 104.758 84.1343 104.802 84.195Z" fill="#594DB3"/>
<path d="M98.1591 79.6425C98.1686 79.6556 98.1761 79.6702 98.1817 79.6863L99.7302 84.1954C99.7604 84.2816 99.7142 84.3754 99.629 84.4048C99.5421 84.434 99.4491 84.3889 99.4199 84.3019L97.8703 79.7936C97.8411 79.7067 97.8863 79.6136 97.9725 79.5834C98.0423 79.5605 98.1179 79.5858 98.1591 79.6425Z" fill="#594DB3"/>
<path d="M115.697 67.74C116.637 69.0329 117.256 70.5526 117.76 71.7883C117.795 71.8726 117.755 71.9682 117.67 72.0022C117.587 72.0364 117.491 71.9963 117.456 71.912C116.434 69.4044 115.425 67.2317 113.445 66.0506C113.368 66.0045 113.341 65.9036 113.389 65.8253C113.435 65.7467 113.536 65.7215 113.614 65.7687C114.453 66.2692 115.133 66.9636 115.697 67.74Z" fill="#594DB3"/>
<path d="M123.495 75.9684C123.505 75.9815 123.513 75.9972 123.519 76.0133C124.56 79.2253 125.569 82.8072 126.639 86.5999L126.898 87.5177C127.895 91.0538 128.338 93.9842 128.254 96.477C128.25 96.5677 128.174 96.6388 128.084 96.6362C127.993 96.6325 127.922 96.5577 127.925 96.466C128.009 94.0073 127.57 91.1097 126.581 87.6072L126.323 86.6886C125.255 82.8997 124.245 79.3214 123.205 76.1158C123.178 76.0291 123.225 75.9364 123.311 75.9089C123.381 75.886 123.454 75.9118 123.495 75.9684Z" fill="#594DB3"/>
<path d="M41.8787 59.2921C41.8876 59.3043 41.8951 59.3189 41.9006 59.335C43.999 65.4466 46.2066 69.9973 50.1551 72.3433C50.2329 72.3887 50.2589 72.4904 50.2125 72.5689C50.1671 72.6467 50.0655 72.6727 49.9879 72.6255C45.951 70.228 43.7109 65.6221 41.5893 59.4423C41.5608 59.3564 41.6059 59.2633 41.6921 59.2331C41.7612 59.2091 41.8369 59.2345 41.8787 59.2921Z" fill="#594DB3"/>
<path d="M37.0582 49.4302C38.7754 51.7927 40.2761 54.3357 41.0849 56.8641C41.3733 57.7669 41.6409 58.5751 41.901 59.3347C41.9302 59.4216 41.8851 59.5147 41.7992 59.5431C41.713 59.5733 41.6192 59.5272 41.5897 59.442C41.3292 58.6797 41.0601 57.8694 40.7719 56.9649C38.9002 51.1164 33.2531 45.1538 29.879 41.5915C28.4761 40.1098 27.462 39.0377 27.1091 38.4182C26.6926 37.6858 26.5613 36.9887 26.7195 36.3453C26.7405 36.2574 26.8296 36.2035 26.9175 36.2246C27.0062 36.2466 27.0601 36.3357 27.039 36.4236C26.9014 36.9825 27.0214 37.5982 27.3943 38.2558C27.7275 38.8417 28.7824 39.9552 30.1179 41.3653C32.0622 43.4176 34.7554 46.2619 37.0582 49.4302Z" fill="#594DB3"/>
<path d="M28.7896 58.3729C29.9373 59.9519 31.1149 61.9697 32.3381 64.0671C34.8196 68.3229 37.6336 73.1467 40.7096 74.9279C40.7892 74.9736 40.8162 75.0745 40.7707 75.1523C40.7243 75.2308 40.6234 75.2578 40.5456 75.2124C37.3932 73.3878 34.6785 68.7345 32.0542 64.2333C30.2975 61.2212 28.6378 58.3766 27.0404 56.789C23.1204 52.8944 18.8782 46.9983 17.777 43.9145C17.7458 43.8291 17.7902 43.735 17.8764 43.7048C17.9618 43.6736 18.0549 43.7187 18.0861 43.8042C19.1746 46.8492 23.382 52.6888 27.2724 56.5555C27.7734 57.0535 28.2789 57.6703 28.7896 58.3729Z" fill="#594DB3"/>
<path d="M58.9727 51.4312C59.0058 51.4767 59.0148 51.5381 58.9918 51.5935C58.9553 51.6772 58.859 51.7147 58.776 51.6793C57.8612 51.2858 56.6328 50.7542 55.9778 50.4547C51.5436 48.4309 47.3163 51.5745 45.7035 53.0202C43.0263 55.4203 41.5511 58.2755 41.9022 59.3367C41.9306 59.4226 41.8837 59.5154 41.7978 59.5438C41.7109 59.573 41.6191 59.5254 41.5896 59.4402C41.1508 58.1138 42.9354 55.0615 45.4847 52.7744C47.1444 51.2869 51.5035 48.0506 56.1146 50.156C56.767 50.4542 57.993 50.9846 58.9053 51.3767C58.9328 51.3891 58.9565 51.409 58.9727 51.4312Z" fill="#594DB3"/>
<path d="M48.3624 41.3917C48.3815 41.418 48.3935 41.4494 48.3935 41.4834C48.3961 41.5742 48.325 41.6507 48.2342 41.6533C43.2723 41.7944 39.0814 45.1773 36.4397 47.9919C36.3775 48.0573 36.2732 48.0604 36.2069 47.999C36.1411 47.934 36.1384 47.8324 36.1999 47.7661C38.8845 44.9064 43.1494 41.4681 48.2254 41.3244C48.2812 41.3225 48.3315 41.3493 48.3624 41.3917Z" fill="#594DB3"/>
<path d="M95.3338 69.8738C95.3374 69.8788 95.3408 69.8856 95.3445 69.8907C95.4928 70.1521 110.135 96.2109 108.798 108.56C108.788 108.65 108.707 108.715 108.617 108.706C108.526 108.696 108.461 108.615 108.471 108.524C109.798 96.2801 95.2052 70.3133 95.0576 70.0529C95.0138 69.9735 95.0413 69.8731 95.12 69.8283C95.1936 69.7872 95.2853 69.8071 95.3338 69.8738Z" fill="#594DB3"/>
<path d="M98.3589 76.9353C98.3655 76.9444 98.3714 76.9524 98.376 76.963C98.414 77.0451 98.3777 77.144 98.2949 77.181C94.841 78.7676 85.1052 85.1966 82.009 89.8433C81.9594 89.9196 81.8569 89.94 81.7816 89.8896C81.7046 89.839 81.6859 89.7367 81.7353 89.6622C84.8634 84.966 94.677 78.4804 98.1579 76.882C98.2302 76.8496 98.3141 76.8736 98.3589 76.9353Z" fill="#594DB3"/>
<path d="M125.378 98.0869C125.392 98.1051 125.402 98.1273 125.407 98.1514C125.711 99.7036 125.434 101.38 124.646 102.752C124.601 102.831 124.5 102.858 124.421 102.813C124.342 102.768 124.316 102.666 124.361 102.588C125.11 101.285 125.374 99.6905 125.083 98.2148C125.066 98.1253 125.125 98.0396 125.213 98.0215C125.278 98.0085 125.342 98.0364 125.378 98.0869Z" fill="#594DB3"/>
<path d="M57.0219 46.9204C57.2033 47.1701 57.3727 47.4286 57.5295 47.6932C57.5753 47.7711 57.5495 47.8717 57.4706 47.9183C57.3934 47.9651 57.2953 47.9406 57.2462 47.8604C56.0686 45.8597 54.1254 44.2979 51.9195 43.5714C51.8327 43.5434 51.7866 43.4502 51.8154 43.3644C51.8434 43.2776 51.9366 43.2315 52.0224 43.2602C54.0099 43.9137 55.7904 45.2261 57.0219 46.9204Z" fill="#594DB3"/>
</svg>
